<?xml version="1.0" standalone="no"?>
<!DOCTYPE svg PUBLIC "-//W3C//DTD SVG 1.1//EN" "http://www.w3.org/Graphics/SVG/1.1/DTD/svg11.dtd" >
<svg xmlns="http://www.w3.org/2000/svg">
<metadata>Generated by IcoMoon</metadata>
<defs>
<font id="wasder" horiz-adv-x="1024">
<font-face units-per-em="1024" ascent="960" descent="-64" />
<missing-glyph horiz-adv-x="1024" />
<glyph unicode="&#x20;" horiz-adv-x="512" d="" />
<glyph unicode="&#xe900;" glyph-name="facebook-page" d="M299.52 785.067c22.187 0 40.495-16.602 43.181-38.061l0.339-5.459-0.051-17.869 437.811-0.051c17.363 0 32.352-10.168 39.335-24.875 8.787-14.213 8.748-32.566-0.67-46.835l-3.587-4.708-130.719-149.476 131.877-164.128c13.976-17.396 12.403-42.254-2.889-57.77-6.882-8.21-16.728-13.832-27.887-15.228l-5.459-0.339-437.811 0.051 0.051-163.891c0-24.035-19.485-43.52-43.52-43.52-22.187 0-40.495 16.602-43.181 38.061l-0.339 5.459v645.12c0 24.035 19.485 43.52 43.52 43.52z" />
<glyph unicode="&#xe901;" glyph-name="block" d="M512 853.334c-235.52 0-426.667-191.147-426.667-426.667s191.147-426.667 426.667-426.667 426.667 191.147 426.667 426.667-191.147 426.667-426.667 426.667zM170.667 426.667c0 188.587 152.747 341.333 341.333 341.333 78.933 0 151.467-26.88 209.067-72.107l-478.293-478.293c-45.227 57.6-72.107 130.133-72.107 209.067zM512 85.334c-78.933 0-151.467 26.88-209.067 72.107l478.293 478.293c45.227-57.6 72.107-130.133 72.107-209.067 0-188.587-152.747-341.333-341.333-341.333z" />
<glyph unicode="&#xe902;" glyph-name="check" d="M384 248.747l-148.053 148.053c-16.64 16.64-43.52 16.64-60.16 0s-16.64-43.52 0-60.16l178.347-178.347c16.64-16.64 43.52-16.64 60.16 0l451.413 451.413c16.64 16.64 16.64 43.52 0 60.16s-43.52 16.64-60.16 0l-421.547-421.12z" />
<glyph unicode="&#xe903;" glyph-name="close" d="M780.8 695.040c-16.64 16.64-43.52 16.64-60.16 0l-208.64-208.213-208.64 208.64c-16.64 16.64-43.52 16.64-60.16 0s-16.64-43.52 0-60.16l208.64-208.64-208.64-208.64c-16.64-16.64-16.64-43.52 0-60.16s43.52-16.64 60.16 0l208.64 208.64 208.64-208.64c16.64-16.64 43.52-16.64 60.16 0s16.64 43.52 0 60.16l-208.64 208.64 208.64 208.64c16.213 16.213 16.213 43.52 0 59.733z" />
<glyph unicode="&#xe904;" glyph-name="delete" d="M256 128c0-46.933 38.4-85.333 85.333-85.333h341.333c46.933 0 85.333 38.4 85.333 85.333v426.667c0 46.933-38.4 85.333-85.333 85.333h-341.333c-46.933 0-85.333-38.4-85.333-85.333v-426.667zM384 554.667h256c23.467 0 42.667-19.2 42.667-42.667v-341.333c0-23.467-19.2-42.667-42.667-42.667h-256c-23.467 0-42.667 19.2-42.667 42.667v341.333c0 23.467 19.2 42.667 42.667 42.667zM661.333 768l-30.293 30.293c-7.68 7.68-18.773 12.373-29.867 12.373h-178.347c-11.093 0-22.187-4.693-29.867-12.373l-30.293-30.293h-106.667c-23.467 0-42.667-19.2-42.667-42.667s19.2-42.667 42.667-42.667h512c23.467 0 42.667 19.2 42.667 42.667s-19.2 42.667-42.667 42.667h-106.667z" />
<glyph unicode="&#xe905;" glyph-name="edit" d="M128 193.707v-129.707c0-11.947 9.387-21.333 21.333-21.333h129.707c5.547 0 11.093 2.133 14.933 6.4l465.92 465.493-160 160-465.493-465.493c-4.267-4.267-6.4-9.387-6.4-15.36zM883.627 638.294c16.64 16.64 16.64 43.52 0 60.16l-99.84 99.84c-16.64 16.64-43.52 16.64-60.16 0l-78.080-78.080 160-160 78.080 78.080z" />
<glyph unicode="&#xe906;" glyph-name="schedule" d="M682.667 512h-341.333c-23.467 0-42.667-19.2-42.667-42.667s19.2-42.667 42.667-42.667h341.333c23.467 0 42.667 19.2 42.667 42.667s-19.2 42.667-42.667 42.667zM810.667 810.667h-42.667v42.667c0 23.467-19.2 42.667-42.667 42.667s-42.667-19.2-42.667-42.667v-42.667h-341.333v42.667c0 23.467-19.2 42.667-42.667 42.667s-42.667-19.2-42.667-42.667v-42.667h-42.667c-47.36 0-85.333-38.4-85.333-85.333v-597.333c0-46.933 37.973-85.333 85.333-85.333h597.333c46.933 0 85.333 38.4 85.333 85.333v597.333c0 46.933-38.4 85.333-85.333 85.333zM768 128h-512c-23.467 0-42.667 19.2-42.667 42.667v426.667h597.333v-426.667c0-23.467-19.2-42.667-42.667-42.667zM554.667 341.334h-213.333c-23.467 0-42.667-19.2-42.667-42.667s19.2-42.667 42.667-42.667h213.333c23.467 0 42.667 19.2 42.667 42.667s-19.2 42.667-42.667 42.667z" />
<glyph unicode="&#xe907;" glyph-name="loop" d="M512 768v76.373c0 19.2-23.040 28.587-36.267 14.933l-119.467-119.040c-8.533-8.533-8.533-21.76 0-30.293l119.040-119.040c13.653-13.227 36.693-3.84 36.693 15.36v76.373c141.227 0 256-114.773 256-256 0-33.707-6.4-66.56-18.773-96-6.4-15.36-1.707-32.853 9.813-44.373 21.76-21.76 58.453-14.080 69.973 14.507 15.787 38.827 24.32 81.493 24.32 125.867 0 188.587-152.747 341.333-341.333 341.333zM512 170.667c-141.227 0-256 114.773-256 256 0 33.707 6.4 66.56 18.773 96 6.4 15.36 1.707 32.853-9.813 44.373-21.76 21.76-58.453 14.080-69.973-14.507-15.787-38.827-24.32-81.493-24.32-125.867 0-188.587 152.747-341.333 341.333-341.333v-76.373c0-19.2 23.040-28.587 36.267-14.933l119.040 119.040c8.533 8.533 8.533 21.76 0 30.293l-119.040 119.040c-13.227 13.227-36.267 3.84-36.267-15.36v-76.373z" />
<glyph unicode="&#xe908;" glyph-name="time" d="M511.573 853.334c-235.52 0-426.24-191.147-426.24-426.667s190.72-426.667 426.24-426.667c235.947 0 427.093 191.147 427.093 426.667s-191.147 426.667-427.093 426.667zM512 85.334c-188.587 0-341.333 152.747-341.333 341.333s152.747 341.333 341.333 341.333 341.333-152.747 341.333-341.333-152.747-341.333-341.333-341.333zM502.613 640h-2.56c-17.067 0-30.72-13.653-30.72-30.72v-201.387c0-14.933 7.68-29.013 20.907-36.693l177.067-106.24c14.507-8.533 33.28-4.267 41.813 10.24 8.96 14.507 4.267 33.707-10.667 42.24l-165.12 98.133v193.707c0 17.067-13.653 30.72-30.72 30.72z" />
<glyph unicode="&#xe909;" glyph-name="add-photo" d="M896.853 725.334h-86.187v86.187c0 23.040-18.773 41.813-41.813 41.813h-1.28c-23.467 0-42.24-18.773-42.24-41.813v-86.187h-85.76c-23.040 0-41.813-18.773-42.24-41.813v-1.28c0-23.467 18.773-42.24 42.24-42.24h85.76v-85.76c0-23.040 18.773-42.24 42.24-41.813h1.28c23.040 0 41.813 18.773 41.813 41.813v85.76h86.187c23.040 0 41.813 18.773 41.813 41.813v1.707c0 23.040-18.773 41.813-41.813 41.813zM682.667 554.24v43.093h-43.093c-22.613 0-43.947 8.96-60.16 24.747-15.787 16.213-24.747 37.547-24.747 61.44 0 15.36 4.267 29.44 11.52 41.813h-352.853c-46.933 0-85.333-38.4-85.333-85.333v-512c0-46.933 38.4-85.333 85.333-85.333h512c46.933 0 85.333 38.4 85.333 85.333v353.28c-12.8-7.253-27.307-11.947-43.52-11.947-46.507 0.427-84.48 38.4-84.48 84.907zM680.96 128h-424.96c-17.493 0-27.733 20.053-17.067 34.133l84.48 112.213c8.96 11.947 26.453 11.093 34.987-0.853l68.267-102.827 111.36 148.48c8.533 11.093 25.173 11.52 33.707 0.427l125.867-157.013c11.093-14.080 1.28-34.56-16.64-34.56z" />
<glyph unicode="&#xe90a;" glyph-name="add" d="M768 384h-213.333v-213.333c0-23.467-19.2-42.667-42.667-42.667s-42.667 19.2-42.667 42.667v213.333h-213.333c-23.467 0-42.667 19.2-42.667 42.667s19.2 42.667 42.667 42.667h213.333v213.333c0 23.467 19.2 42.667 42.667 42.667s42.667-19.2 42.667-42.667v-213.333h213.333c23.467 0 42.667-19.2 42.667-42.667s-19.2-42.667-42.667-42.667z" />
<glyph unicode="&#xe90b;" glyph-name="arrow-forward" d="M213.333 384h476.587l-208.213-208.213c-16.64-16.64-16.64-43.947 0-60.587s43.52-16.64 60.16 0l281.173 281.173c16.64 16.64 16.64 43.52 0 60.16l-280.747 281.6c-16.64 16.64-43.52 16.64-60.16 0s-16.64-43.52 0-60.16l207.787-208.64h-476.587c-23.467 0-42.667-19.2-42.667-42.667s19.2-42.667 42.667-42.667z" />
<glyph unicode="&#xe90c;" glyph-name="chat-outline" d="M853.333 853.334h-682.667c-46.933 0-85.333-38.4-85.333-85.333v-768l170.667 170.667h597.333c46.933 0 85.333 38.4 85.333 85.333v512c0 46.933-38.4 85.333-85.333 85.333zM810.667 256h-554.667l-85.333-85.333v554.667c0 23.467 19.2 42.667 42.667 42.667h597.333c23.467 0 42.667-19.2 42.667-42.667v-426.667c0-23.467-19.2-42.667-42.667-42.667z" />
<glyph unicode="&#xe90d;" glyph-name="chat" d="M853.333 853.334h-682.667c-46.933 0-84.907-38.4-84.907-85.333l-0.427-768 170.667 170.667h597.333c46.933 0 85.333 38.4 85.333 85.333v512c0 46.933-38.4 85.333-85.333 85.333zM298.667 554.667h426.667c23.467 0 42.667-19.2 42.667-42.667s-19.2-42.667-42.667-42.667h-426.667c-23.467 0-42.667 19.2-42.667 42.667s19.2 42.667 42.667 42.667zM554.667 341.334h-256c-23.467 0-42.667 19.2-42.667 42.667s19.2 42.667 42.667 42.667h256c23.467 0 42.667-19.2 42.667-42.667s-19.2-42.667-42.667-42.667zM725.333 597.334h-426.667c-23.467 0-42.667 19.2-42.667 42.667s19.2 42.667 42.667 42.667h426.667c23.467 0 42.667-19.2 42.667-42.667s-19.2-42.667-42.667-42.667z" />
<glyph unicode="&#xe90e;" glyph-name="chevron-right" d="M396.373 652.374c-16.64-16.64-16.64-43.52 0-60.16l165.547-165.547-165.547-165.547c-16.64-16.64-16.64-43.52 0-60.16s43.52-16.64 60.16 0l195.84 195.84c16.64 16.64 16.64 43.52 0 60.16l-195.84 195.84c-16.213 16.213-43.52 16.213-60.16-0.427z" />
<glyph unicode="&#xe90f;" glyph-name="clear" d="M256 384h512c23.467 0 42.667 19.2 42.667 42.667s-19.2 42.667-42.667 42.667h-512c-23.467 0-42.667-19.2-42.667-42.667s19.2-42.667 42.667-42.667zM170.667 213.334h512c23.467 0 42.667 19.2 42.667 42.667s-19.2 42.667-42.667 42.667h-512c-23.467 0-42.667-19.2-42.667-42.667s19.2-42.667 42.667-42.667zM298.667 597.334c0-23.467 19.2-42.667 42.667-42.667h512c23.467 0 42.667 19.2 42.667 42.667s-19.2 42.667-42.667 42.667h-512c-23.467 0-42.667-19.2-42.667-42.667z" />
<glyph unicode="&#xe910;" glyph-name="admin" d="M128 669.878v-200.544c0-236.8 163.84-458.24 384-512 220.16 53.76 384 275.2 384 512v200.544c0 33.723-19.86 64.282-50.676 77.979l-298.667 132.741c-22.064 9.806-47.25 9.806-69.314 0l-298.667-132.741c-30.816-13.696-50.676-44.256-50.676-77.979zM643.413 256l-131.413 78.933-130.987-78.933 34.56 149.333-115.627 99.84 152.747 13.227 59.307 140.8 59.307-140.373 152.747-13.227-115.627-100.267 34.987-149.333z" />
<glyph unicode="&#xe911;" glyph-name="event" d="M682.667 384h-128c-23.467 0-42.667-19.2-42.667-42.667v-128c0-23.467 19.2-42.667 42.667-42.667h128c23.467 0 42.667 19.2 42.667 42.667v128c0 23.467-19.2 42.667-42.667 42.667zM682.667 810.667v-42.667h-341.333v42.667c0 23.467-19.2 42.667-42.667 42.667s-42.667-19.2-42.667-42.667v-42.667h-42.667c-47.36 0-84.907-38.4-84.907-85.333l-0.427-597.333c0-46.933 37.973-85.333 85.333-85.333h597.333c46.933 0 85.333 38.4 85.333 85.333v597.333c0 46.933-38.4 85.333-85.333 85.333h-42.667v42.667c0 23.467-19.2 42.667-42.667 42.667s-42.667-19.2-42.667-42.667zM768 85.334h-512c-23.467 0-42.667 19.2-42.667 42.667v426.667h597.333v-426.667c0-23.467-19.2-42.667-42.667-42.667z" />
<glyph unicode="&#xe912;" glyph-name="favorite-border" d="M838.827 768.427c-112.64 76.8-251.733 40.96-326.827-46.933-75.093 87.893-214.187 124.16-326.827 46.933-59.733-40.96-97.28-110.080-99.84-183.040-5.973-165.547 140.8-298.24 364.8-501.76l4.267-3.84c32.427-29.44 82.347-29.44 114.773 0.427l4.693 4.267c224 203.093 370.347 335.787 364.8 501.333-2.56 72.533-40.107 141.653-99.84 182.613zM516.267 147.2l-4.267-4.267-4.267 4.267c-203.093 183.893-337.067 305.493-337.067 428.8 0 85.333 64 149.333 149.333 149.333 65.707 0 129.707-42.24 152.32-100.693h79.787c22.187 58.453 86.187 100.693 151.893 100.693 85.333 0 149.333-64 149.333-149.333 0-123.307-133.973-244.907-337.067-428.8z" />
<glyph unicode="&#xe913;" glyph-name="favorite" d="M569.6 79.787c-32.427-29.44-82.347-29.44-114.773 0.427l-4.693 4.267c-224 202.667-370.347 335.36-364.8 500.907 2.56 72.533 39.68 142.080 99.84 183.040 112.64 76.8 251.733 40.96 326.827-46.933 75.093 87.893 214.187 124.16 326.827 46.933 60.16-40.96 97.28-110.507 99.84-183.040 5.973-165.547-140.8-298.24-364.8-501.76l-4.267-3.84z" />
<glyph unicode="&#xe914;" glyph-name="group" d="M682.667 469.334c70.827 0 127.573 57.173 127.573 128s-56.747 128-127.573 128-128-57.173-128-128 57.173-128 128-128zM341.333 469.334c70.827 0 127.573 57.173 127.573 128s-56.747 128-127.573 128-128-57.173-128-128 57.173-128 128-128zM341.333 384c-99.413 0-298.667-49.92-298.667-149.333v-64c0-23.467 19.2-42.667 42.667-42.667h512c23.467 0 42.667 19.2 42.667 42.667v64c0 99.413-199.253 149.333-298.667 149.333zM682.667 384c-12.373 0-26.453-0.853-41.387-2.133 0.853-0.427 1.28-1.28 1.707-1.707 48.64-35.413 82.347-82.773 82.347-145.493v-64c0-14.933-2.987-29.44-7.68-42.667h221.013c23.467 0 42.667 19.2 42.667 42.667v64c0 99.413-199.253 149.333-298.667 149.333z" />
<glyph unicode="&#xe915;" glyph-name="home" d="M426.667 128v213.333h170.667v-213.333c0-23.467 19.2-42.667 42.667-42.667h128c23.467 0 42.667 19.2 42.667 42.667v298.667h72.533c19.627 0 29.013 24.32 14.080 37.12l-356.693 321.28c-16.213 14.507-40.96 14.507-57.173 0l-356.693-321.28c-14.507-12.8-5.547-37.12 14.080-37.12h72.533v-298.667c0-23.467 19.2-42.667 42.667-42.667h128c23.467 0 42.667 19.2 42.667 42.667z" />
<glyph unicode="&#xe916;" glyph-name="tag-user" d="M1023.744 484.381c0-197.519-92.521-322.031-238.852-322.031-4.17-0.468-9.004-0.735-13.9-0.735-61.56 0-113.264 42.203-127.757 99.255l-0.196 0.912h-10.685c-24.133-56.996-79.597-96.255-144.229-96.255-3.283 0-6.542 0.101-9.775 0.301l0.443-0.022c-130.079 0-217.034 104.23-217.034 259.391 0 149.019 87.466 252.737 215.178 252.737 1.902 0.084 4.134 0.131 6.376 0.131 60.968 0 113.716-35.193 139.038-86.372l0.405-0.906h10.685v74.605h106.405v-344.746c-0.272-2.176-0.427-4.695-0.427-7.249 0-34.065 27.615-61.681 61.681-61.681 1.795 0 3.571 0.077 5.327 0.227l-0.229-0.016c73.838 0 120.738 89.578 120.738 228.743 0 222.088-166.358 370.595-412.185 370.595-3.29 0.096-7.161 0.15-11.045 0.15-224.216 0-405.979-181.763-405.979-405.979 0-7.863 0.224-15.674 0.665-23.426l-0.049 1.074c0-256.448 171.413-420.183 438.29-420.183 1.342-0.008 2.93-0.013 4.518-0.013 49.663 0 98.281 4.474 145.473 13.041l-4.939-0.744c2.366 0.471 5.087 0.74 7.87 0.74 23.268 0 42.141-18.818 42.229-42.065v-0.008c0-0.032 0-0.070 0-0.108 0-19.687-13.472-36.228-31.699-40.906l-0.293-0.064c-48.744-11.36-104.713-17.871-162.204-17.871-1.911 0-3.82 0.007-5.728 0.022l0.294-0.002c-324.463 0-532.155 200.462-532.155 511.872 0 303.668 211.979 511.872 520.958 511.872 296.95 0 502.786-185.554 502.786-454.286zM376.418 423.084c0-98.663 46.388-158.36 121.57-158.36 79.468 0 129.568 61.297 129.568 158.36s-50.099 157.017-127.968 157.017-123.169-57.842-123.169-156.761z" />
<glyph unicode="&#xe917;" glyph-name="more" d="M256 512c-46.933 0-85.333-38.4-85.333-85.333s38.4-85.333 85.333-85.333 85.333 38.4 85.333 85.333-38.4 85.333-85.333 85.333zM768 512c-46.933 0-85.333-38.4-85.333-85.333s38.4-85.333 85.333-85.333 85.333 38.4 85.333 85.333-38.4 85.333-85.333 85.333zM512 512c-46.933 0-85.333-38.4-85.333-85.333s38.4-85.333 85.333-85.333 85.333 38.4 85.333 85.333-38.4 85.333-85.333 85.333z" />
<glyph unicode="&#xe918;" glyph-name="notifications-outline" d="M823.040 200.96l-55.040 55.040v213.333c0 130.987-69.973 240.64-192 269.653v29.013c0 35.413-28.587 64-64 64s-64-28.587-64-64v-29.013c-122.453-29.013-192-138.24-192-269.653v-213.333l-55.040-55.040c-26.88-26.88-8.107-72.96 29.867-72.96h561.92c38.4 0 57.173 46.080 30.293 72.96zM682.667 213.334h-341.333v256c0 105.813 64.427 192 170.667 192s170.667-86.187 170.667-192v-256zM512-0c46.933 0 85.333 38.4 85.333 85.333h-170.667c0-46.933 37.973-85.333 85.333-85.333z" />
<glyph unicode="&#xe919;" glyph-name="notifications" d="M512-0c46.933 0 85.333 38.4 85.333 85.333h-170.667c0-46.933 37.973-85.333 85.333-85.333zM768 256v213.333c0 130.987-69.973 240.64-192 269.653v29.013c0 35.413-28.587 64-64 64s-64-28.587-64-64v-29.013c-122.453-29.013-192-138.24-192-269.653v-213.333l-55.040-55.040c-26.88-26.88-8.107-72.96 29.867-72.96h561.92c37.973 0 57.173 46.080 30.293 72.96l-55.040 55.040z" />
<glyph unicode="&#xe91a;" glyph-name="report" d="M597.333 682.667l-30.72 61.867c-7.253 14.507-22.187 23.467-38.4 23.467h-272.213c-23.467 0-42.667-19.2-42.667-42.667v-640c0-23.467 19.2-42.667 42.667-42.667s42.667 19.2 42.667 42.667v256h213.333l30.72-61.867c7.253-14.507 22.187-23.467 37.973-23.467h229.973c23.467 0 42.667 19.2 42.667 42.667v341.333c0 23.467-19.2 42.667-42.667 42.667h-213.333zM768 341.334h-170.667l-42.667 85.333h-256v256h213.333l42.667-85.333h213.333v-256z" />
<glyph unicode="&#xe91b;" glyph-name="person" d="M512 426.667c94.293 0 170.667 76.373 170.667 170.667s-76.373 170.667-170.667 170.667-170.667-76.373-170.667-170.667 76.373-170.667 170.667-170.667zM512 341.334c-113.92 0-341.333-57.173-341.333-170.667v-42.667c0-23.467 19.2-42.667 42.667-42.667h597.333c23.467 0 42.667 19.2 42.667 42.667v42.667c0 113.493-227.413 170.667-341.333 170.667z" />
<glyph unicode="&#xe91c;" glyph-name="person-add" d="M640 426.667c94.293 0 170.667 76.373 170.667 170.667s-76.373 170.667-170.667 170.667-170.667-76.373-170.667-170.667 76.373-170.667 170.667-170.667zM256 512v85.333c0 23.467-19.2 42.667-42.667 42.667s-42.667-19.2-42.667-42.667v-85.333h-85.333c-23.467 0-42.667-19.2-42.667-42.667s19.2-42.667 42.667-42.667h85.333v-85.333c0-23.467 19.2-42.667 42.667-42.667s42.667 19.2 42.667 42.667v85.333h85.333c23.467 0 42.667 19.2 42.667 42.667s-19.2 42.667-42.667 42.667h-85.333zM640 341.334c-113.92 0-341.333-57.173-341.333-170.667v-42.667c0-23.467 19.2-42.667 42.667-42.667h597.333c23.467 0 42.667 19.2 42.667 42.667v42.667c0 113.493-227.413 170.667-341.333 170.667z" />
<glyph unicode="&#xe91d;" glyph-name="menu" d="M170.667 170.667h682.667c23.467 0 42.667 19.2 42.667 42.667s-19.2 42.667-42.667 42.667h-682.667c-23.467 0-42.667-19.2-42.667-42.667s19.2-42.667 42.667-42.667zM170.667 384h682.667c23.467 0 42.667 19.2 42.667 42.667s-19.2 42.667-42.667 42.667h-682.667c-23.467 0-42.667-19.2-42.667-42.667s19.2-42.667 42.667-42.667zM128 640c0-23.467 19.2-42.667 42.667-42.667h682.667c23.467 0 42.667 19.2 42.667 42.667s-19.2 42.667-42.667 42.667h-682.667c-23.467 0-42.667-19.2-42.667-42.667z" />
<glyph unicode="&#xe91e;" glyph-name="golive" d="M448 206.934l169.813 97.28c28.587 16.213 28.587 57.6 0 74.24l-169.813 97.28c-28.587 16.213-64-4.693-64-37.12v-194.133c0-32.853 35.413-53.76 64-37.547zM896 682.667h-323.84l125.44 125.44c8.533 8.533 8.533 21.76 0 30.293s-21.76 8.533-30.293 0l-155.307-155.307-155.307 155.307c-8.533 8.533-21.76 8.533-30.293 0s-8.533-21.76 0-30.293l125.44-125.44h-323.84c-46.933 0-85.333-37.973-85.333-85.333v-512c0-46.933 38.4-85.333 85.333-85.333h768c46.933 0 85.333 38.4 85.333 85.333v512c0 47.36-38.4 85.333-85.333 85.333zM853.333 85.334h-682.667c-23.467 0-42.667 19.2-42.667 42.667v426.667c0 23.467 19.2 42.667 42.667 42.667h682.667c23.467 0 42.667-19.2 42.667-42.667v-426.667c0-23.467-19.2-42.667-42.667-42.667z" />
<glyph unicode="&#xe91f;" glyph-name="facebook" d="M1024 426.667c0 282.8-229.2 512-512 512s-512-229.2-512-512c0-255.6 187.2-467.4 432-505.8v357.8h-130v148h130v112.8c0 128.3 76.4 199.2 193.4 199.2 56 0 114.6-10 114.6-10v-126h-64.6c-63.6 0-83.4-39.5-83.4-80v-96h142l-22.7-148h-119.3v-357.8c244.8 38.4 432 250.2 432 505.8z" />
<glyph unicode="&#xe920;" glyph-name="razer1" d="M988.35 933.325c5.091 5.548 13.313 6.945 19.962 3.39s10.027-11.153 8.201-18.447c2.077-1.418 3.8-3.291 5.037-5.475v0l0.229 0.456c3.031-5.212 2.955-11.66-0.197-16.8s-8.876-8.149-14.914-7.839v0h-13.28l-16.486-6.616c-2.679-5.88-7.171-10.755-12.822-13.916-2.348-1.203-4.325-3.016-5.724-5.247-4.678-6.765-11.19-12.066-18.775-15.285-3.957-3.713-8.631-6.585-13.738-8.441-7.285-2.822-15.223-3.534-22.897-2.053v0l3.663-6.16c12.771-16.686 13.776-39.527 2.519-57.262-7.231-11.073-18.924-18.479-32.055-20.304-14.349-1.476-28.656 3.165-39.382 12.776-4.981 4.385-9.648 9.111-13.967 14.144-16.486 18.251-25.873 26.236-35.49 21.673-3.721-2.741-6.193-6.846-6.869-11.407-0.746-13.004 3.147-25.853 10.99-36.274v0l2.748-4.335c18.952-27.176 40.582-52.396 64.569-75.285 30.809-29.168 57.949-61.955 80.825-97.642 2.29-3.878 4.35-7.757 6.411-11.635 22.807-44.515 14.206-98.605-21.294-133.916-39.499-38.66-99.003-48.678-149.058-25.095-3.765-2.353-7.664-4.486-11.677-6.388-26.189-12.582-54.96-18.909-84.031-18.479-21.839 0.103-43.314 5.589-62.508 15.97-22.511-24.706-52.949-40.837-86.092-45.627v0h-6.64c-10.443-2.17-20.701-5.145-30.682-8.897 9.154-16.662 26.729-26.994 45.794-26.92 17.236-0.914 33.524 7.906 42.13 22.814 2.567 6.058 8.512 10.008 15.112 10.038v0h2.748c7.524-1.248 13.206-7.476 13.738-15.057 1.145-17.338-9.846-52.243-58.845-62.966-7.071-1.532-14.287-2.297-21.523-2.281-30.95 0.797-60.026 14.95-79.681 38.783-3.49-7.974-5.134-16.629-4.808-25.323 0.916-27.148 19.92-41.749 56.326-43.118v0h4.808c31.001 2.015 61.7 7.291 91.587 15.741 37.937 10.597 76.959 16.873 116.316 18.707 16.273 0.261 32.49-1.97 48.083-6.616 33.894-8.971 59.351-36.925 65.027-71.407 5.228-31.556-7.455-63.409-32.971-82.813-4.467-3.041-9.221-5.639-14.196-7.757 2.551-2.175 4.855-4.623 6.869-7.3 9.644-14.061 11.943-31.874 6.182-47.909v0-2.281c3.606-7.029 4.888-15.014 3.663-22.814-0.809-5.084-2.597-9.965-5.266-14.373-1.427-8.103-5.162-15.626-10.761-21.673-1.813-1.734-3.085-3.952-3.663-6.388-1.555-5.838-4.824-11.081-9.388-15.057v0l-2.748-18.479 3.664-12.776c2.070-7.086-0.856-14.678-7.155-18.56s-14.423-3.103-19.863 1.906c-6.455-2.921-14.061-1.403-18.889 3.769s-5.796 12.841-2.405 19.044v0l7.098 11.179 2.519 17.567c-3.786 5.247-5.791 11.561-5.724 18.023 0.081 2.628-0.552 5.229-1.832 7.529-3.348 7.113-4.694 14.998-3.892 22.814-1.018 5.121-1.018 10.392 0 15.513 1.185 7.975 4.687 15.43 10.075 21.445v0h-7.098c-20.9-2.689-41.271 7.869-51.060 26.464-6.020 11.795-6.605 25.613-1.603 37.871 5.915 13.148 17.149 23.179 30.911 27.604 6.286 2.117 12.713 3.794 19.233 5.019 24.271 5.019 36.635 9.354 36.635 19.848 0.767 5.727-1.379 11.459-5.724 15.285-10.947 7.167-24.089 10.239-37.093 8.669v0h-5.037c-33.111-2.746-65.864-8.784-97.769-18.023-40.742-12.020-82.798-19.068-125.245-20.989v0h-13.28c-50.105 2.563-92.834 37.028-105.783 85.323-13.887 53.417 7.137 109.795 52.663 141.216-0.257 4.407-0.257 8.825 0 13.232 2.145 28.856 11.003 56.819 25.873 81.673 11.236 18.753 26.972 34.432 45.794 45.627-9.968 31.722-8.592 65.905 3.892 96.73v0 2.281l1.145 4.106c3.312 10.057 5.838 20.354 7.556 30.798-18.919 0.211-36.459-9.838-45.793-26.236-9.186-14.74-9.186-33.396 0-48.137 3.603-5.471 3.603-12.552 0-18.023v0l-1.603-2.281c-4.84-5.854-13.072-7.645-19.92-4.335-15.57 7.528-40.527 34.449-25.415 82.129 2.185 6.832 5.102 13.41 8.701 19.62 16.126 26.349 42.949 44.415 73.499 49.506-5.202 7.035-11.934 12.806-19.691 16.882-24.042 12.776-46.251 3.65-65.714-27.148v0l-2.519-4.106c-13.949-28.039-24.849-57.484-32.513-87.832-9.758-38.039-23.815-74.852-41.901-109.734-7.909-14.141-17.947-26.99-29.766-38.099-24.714-24.799-61.734-32.837-94.564-20.532-30.084 11.216-51.489 38.073-55.639 69.81-0.533 5.386-0.533 10.811 0 16.198-3.187-1.12-6.489-1.885-9.846-2.281-17.42-1.623-34.531 5.367-45.793 18.707v0h-2.519c-7.756 0.403-15.196 3.193-21.294 7.985-4.023 3.281-7.367 7.31-9.846 11.863-6.342 5.263-11.031 12.232-13.509 20.076-0.579 2.436-1.851 4.654-3.663 6.388-4.261 4.311-7.132 9.793-8.243 15.741v0l-14.654 11.407-13.051 3.194c-6.744 1.99-11.477 8.024-11.787 15.025s3.872 13.427 10.413 16.001c0.393 7.418 5.733 13.651 13.025 15.2s14.719-1.971 18.115-8.584v0l6.182-11.863 13.967-10.951c6.463 0.637 12.962-0.802 18.546-4.106 2.195-1.396 4.725-2.183 7.327-2.281 8.284-0.578 16.23-3.508 22.897-8.441 4.483-1.089 8.743-2.941 12.593-5.475 6.337-5.078 11.036-11.901 13.509-19.62v0l3.435 6.388c8.094 19.29 27.342 31.561 48.312 30.798 13.243-0.723 25.521-7.131 33.658-17.566 8.5-11.629 11.661-26.3 8.701-40.38-1.379-6.508-3.216-12.912-5.495-19.163-6.64-23.498-8.701-35.589 0-41.521 4.56-3.497 10.559-4.521 16.028-2.738 8.701 2.738 16.944 11.635 26.102 27.604v0l2.519 4.563c14.158 29.923 25.28 61.181 33.2 93.308 9.931 41.19 24.847 81.025 44.42 118.631 2.29 4.106 4.808 7.757 7.098 11.407 27.29 41.955 78.623 61.584 127.077 48.593 53.316-14.711 91.786-60.963 96.395-115.893 3.946-2.058 7.769-4.343 11.448-6.844 24.051-16.275 43.964-37.912 58.158-63.194 10.861-18.932 16.84-40.253 17.402-62.053 32.558-7.202 61.605-25.422 82.199-51.559v0l1.603-1.825 2.977-2.966c7.020-8.191 14.676-15.819 22.897-22.814 9.823 16.367 9.823 36.789 0 53.156-7.897 15.402-23.856 25.031-41.214 24.867-6.533-0.811-12.924 2.328-16.257 7.985v0l-1.145 2.509c-2.644 7.163 0.012 15.197 6.411 19.392 14.196 9.582 50.144 17.795 84.031-19.163 4.888-5.302 9.188-11.116 12.822-17.338 14.842-27.136 17.098-59.363 6.182-88.289 8.7 0.941 17.074 3.827 24.5 8.441 23.126 14.373 26.331 38.099 9.388 70.266v0l-2.29 4.106c-17.359 26.093-37.47 50.261-59.99 72.091-28.193 27.513-53.157 58.127-74.414 91.254-8.452 14.167-14.632 29.561-18.317 45.627-8.913 33.556 2.627 69.209 29.537 91.255 24.786 20.272 58.772 25.273 88.381 13.004 5.072-2.249 9.905-5.001 14.425-8.213 0.636 3.293 1.634 6.506 2.977 9.582 7.404 15.298 21.699 26.149 38.467 29.201v0l1.603 2.053c4.241 6.494 10.402 11.516 17.63 14.373 4.813 1.875 9.945 2.805 15.112 2.738 7.923 2.32 16.348 2.32 24.271 0 2.392-0.697 4.935-0.697 7.327 0 5.819 1.778 12.040 1.778 17.859 0v0l17.173 7.757zM1000.485 921.628l-11.677-12.135-29.079-11.219c-3.033 3.419-7.865 4.604-12.135 2.977-15.112-3.892-15.57 4.35-32.513-2.061-3.434-1.374-2.29 1.603-13.28-2.061s-11.677-14.883-17.859-16.028c-13.611-1.003-25.42-9.77-30.319-22.508s-2.008-27.159 7.423-37.024c3.892-5.495 6.182-9.388 4.121-11.448s-4.808-2.977-9.159 3.663c-10.346 15.489-24.24 28.284-40.527 37.322-25.397 9.954-54.244 4.627-74.41-13.742s-28.157-46.593-20.611-72.807c17.173-77.162 120.437-145.623 153.637-208.818 24.5-45.793 9.846-76.475-15.112-91.587-17.416-10.832-38.453-14.214-58.387-9.388 22.589 33.825 20.165 78.495-5.953 109.675-33.2 36.406-62.737 16.715-62.737 16.715 47.396 5.724 95.708-64.34 45.793-117.002-15.502 9.977-29.463 22.165-41.443 36.177-7.327 7.785-45.794 54.265-89.526 48.77 8.243 45.794-22.897 98.685-67.087 128.222-5.538 3.791-11.445 7.013-17.63 9.617-9.617 121.124-141.502 149.516-194.164 68.69-42.817-65.256-50.602-160.277-83.802-222.785-15.799-29.766-40.756-54.494-68.69-35.49s-3.892 57.013 0 77.162c2.596 8.905 0.992 18.507-4.357 26.084s-13.86 12.304-23.119 12.84c-22.897 1.832-33.429-22.897-37.093-31.14-1.441-5.115-5.703-8.94-10.944-9.822s-10.52 1.338-13.555 5.701c-3.892 4.35-5.495 15.799-11.906 20.378s-9.159 3.435-12.135 5.724c-14.425 10.761-16.944 3.434-30.682 11.219-3.951 2.901-9.329 2.901-13.28 0l-22.897 18.775-7.785 15.112 4.35-14.883h-16.257l16.486-4.121 22.897-18.775c-1.521-4.365-0.148-9.215 3.435-12.135 10.99-11.219 4.121-15.57 17.859-27.247 2.748-2.29 0-2.748 8.243-10.304s18.775-2.748 22.897-7.327c7.593-11.412 21.111-17.39 34.662-15.327s24.679 11.79 28.533 24.944c2.748 6.182 5.037 9.846 8.014 9.159s5.037-2.748 1.603-9.846c-8.196-16.732-12.278-35.179-11.906-53.807 4.098-26.97 23.152-49.275 49.15-57.537s54.433-1.046 73.347 18.612c58.387 53.578 65.943 176.992 103.951 237.439 28.163 44.42 61.363 45.793 87.466 32.971 18.072-9.649 31.517-26.146 37.322-45.793-40.437 2.46-77.685-21.938-91.587-59.99-14.883-46.938 16.944-62.737 16.944-62.737-28.85 38.238 7.785 114.484 78.078 98.685-0.726-18.086-4.042-35.975-9.846-53.12-2.977-10.075-22.897-67.087 2.519-102.119-44.649-16.257-73.728-69.835-77.62-122.040-0.666-6.623-0.666-13.297 0-19.92-100.059-68.69-58.616-197.37 36.864-202.865 77.849-4.579 163.712 36.177 234.692 38.696 33.658 1.145 67.316-8.014 64.798-41.672s-47.396-32.055-66.629-38.924c-9.005-2.215-16.51-8.413-20.388-16.837s-3.706-18.156 0.468-26.437c9.388-19.92 37.322-16.944 45.793-16.715 18.088 0 17.631-13.28 15.799-19.233s-10.99-12.593-11.677-20.607c0-11.448 1.603-9.617 0-13.28-2.29-17.859 5.495-16.486 5.495-32.055-0.477-4.911 2.311-9.558 6.869-11.448l-4.35-29.995-9.159-14.196 10.761 10.99 7.785-13.738-4.808 16.257 4.35 30.224c4.471 0.884 7.933 4.437 8.701 8.93 4.35 15.112 11.448 11.448 14.425 29.079 0 3.663 2.519 1.145 4.808 12.364 1.603 7.785-6.869 17.63-5.037 22.897 11.906 37.78-14.883 52.205-39.84 49.915-6.869 0-11.219 0-11.906 2.29s0 5.724 7.785 6.182c18.618 1.218 36.674 6.87 52.663 16.486 21.264 17.033 31.031 44.65 25.203 71.264s-26.242 47.622-52.679 54.21c-75.559 22.897-186.38-31.369-257.588-28.621-52.663 2.061-71.209 29.766-72.354 59.303-0.651 20.472 6.937 40.351 21.065 55.181 18.001-36.493 57.922-56.733 97.998-49.686 48.083 10.532 45.794 45.794 45.794 45.794-18.775-43.962-103.722-50.831-124.558 18.317 16.365 8.449 33.874 14.466 51.976 17.859 10.304 2.519 70.064 12.822 87.008 53.12 37.78-29.766 99.601-27.934 145.394-5.037 5.977 2.862 11.653 6.314 16.944 10.304 109.904-52.205 200.118 47.854 157.301 133.488-35.032 68.69-113.11 123.642-150.89 183.174-17.859 28.621-26.789 62.508 3.663 76.933s51.747-24.499 67.545-37.551c6.416-6.679 15.522-10.075 24.745-9.229s17.559 5.844 22.651 13.579c12.593 18.546-4.579 41.443-8.243 47.625-3.477 3.828-4.51 9.283-2.673 14.117s6.233 8.227 11.374 8.779c5.495 1.145 16.486-3.206 22.897 0s7.556 6.182 10.99 7.556c16.486 7.098 11.448 13.051 24.957 20.836 4.653 1.71 7.631 6.272 7.327 11.219l28.163 11.219 16.944 0.229-14.883 3.663 8.014 13.509zM550.335 477.202c20.149 0.687 37.093-23.126 8.701-48.312l0.687-0.916c-22.897-19.462-68.69-32.971-91.587-41.672 5.466 27.516 19.49 52.6 40.069 71.667 11.256 11.294 26.223 18.127 42.13 19.233zM549.624 464.308l-2.037-0.032c-11.426-2.074-21.914-7.658-29.995-15.97-9.406-9.18-17.151-19.907-22.897-31.711 18.721 6.666 36.498 15.715 52.892 26.92 14.425 12.319 9.159 21.673 0 20.76zM662.3 499.183c27.934-9.388 63.424-43.733 81.512-57.471-26.403-9.101-55.002-9.662-81.741-1.603-15.453 4.126-28.88 13.728-37.78 27.018-10.533 18.317 1.832 43.962 38.009 32.055zM656.805 485.037c-17.63 5.475-22.668-3.65-17.63-10.722 7.283-8.209 16.844-14.084 27.476-16.882v0l1.145 0.228c12.966-3.948 26.534-5.571 40.069-4.791-15.532 12.905-32.699 23.72-51.060 32.167zM559.493 653.507l0.229-0.916c21.050-18.353 35.789-42.866 42.13-70.064 4.023-15.319 2.397-31.574-4.579-45.794-10.532-18.317-39.153-20.378-45.794 16.944-6.869 29.308 5.266 77.162 8.014 99.83zM570.484 617.356c-3.389-19.506-4.235-39.366-2.519-59.087 3.892-17.795 14.425-17.795 18.088-9.81 3.237 10.558 3.237 21.838 0 32.395-3.011 12.98-8.28 25.334-15.57 36.502z" />
<glyph unicode="&#xe921;" glyph-name="search" d="M661.333 341.334h-33.707l-11.947 11.52c51.2 59.733 77.653 141.227 63.147 227.84-20.053 118.613-119.040 213.333-238.507 227.84-180.48 22.187-332.373-129.707-310.187-310.187 14.507-119.467 109.227-218.453 227.84-238.507 86.613-14.507 168.107 11.947 227.84 63.147l11.52-11.947v-33.707l181.333-181.333c17.493-17.493 46.080-17.493 63.573 0s17.493 46.080 0 63.573l-180.907 181.76zM405.333 341.334c-106.24 0-192 85.76-192 192s85.76 192 192 192 192-85.76 192-192-85.76-192-192-192z" />
<glyph unicode="&#xe922;" glyph-name="send" d="M145.067 68.267l744.533 319.147c34.56 14.933 34.56 63.573 0 78.507l-744.533 319.147c-28.16 12.373-59.307-8.533-59.307-38.827l-0.427-196.693c0-21.333 15.787-39.68 37.12-42.24l602.88-80.64-602.88-80.213c-21.333-2.987-37.12-21.333-37.12-42.667l0.427-196.693c0-30.293 31.147-51.2 59.307-38.827z" />
<glyph unicode="&#xe923;" glyph-name="settings" d="M512 277.334c-82.475 0-149.333 66.859-149.333 149.333v0c0 82.475 66.859 149.333 149.333 149.333v0c82.475 0 149.333-66.859 149.333-149.333v0c0-82.475-66.859-149.333-149.333-149.333v0zM829.013 385.28c1.707 13.653 2.987 27.307 2.987 41.387s-1.28 28.16-2.987 42.667l90.027 69.547c8.107 6.4 10.24 17.92 5.12 27.307l-85.333 147.627c-5.12 9.387-16.64 13.227-26.027 9.387l-106.24-42.667c-22.187 16.64-45.227 31.147-72.107 41.813l-15.787 113.067c-1.707 10.24-10.667 17.92-21.333 17.92h-170.667c-10.667 0-19.627-7.68-21.333-17.92l-15.787-113.067c-26.88-10.667-49.92-25.173-72.107-41.813l-106.24 42.667c-9.387 3.84-20.907 0-26.027-9.387l-85.333-147.627c-5.547-9.387-2.987-20.907 5.12-27.307l90.027-69.547c-1.707-14.507-2.987-28.587-2.987-42.667s1.28-27.733 2.987-41.387l-90.027-70.827c-8.107-6.4-10.667-17.92-5.12-27.307l85.333-147.627c5.12-9.387 16.64-12.8 26.027-9.387l106.24 43.093c22.187-17.067 45.227-31.573 72.107-42.24l15.787-113.067c1.707-10.24 10.667-17.92 21.333-17.92h170.667c10.667 0 19.627 7.68 21.333 17.92l15.787 113.067c26.88 11.093 49.92 25.173 72.107 42.24l106.24-43.093c9.387-3.413 20.907 0 26.027 9.387l85.333 147.627c5.12 9.387 2.987 20.907-5.12 27.307l-90.027 70.827z" />
<glyph unicode="&#xe924;" glyph-name="share" d="M768 252.587c-32.427 0-61.44-12.8-83.627-32.853l-304.213 177.067c2.133 9.813 3.84 19.627 3.84 29.867s-1.707 20.053-3.84 29.867l300.8 175.36c23.040-21.333 53.333-34.56 87.040-34.56 70.827 0 128 57.173 128 128s-57.173 128-128 128-128-57.173-128-128c0-10.24 1.707-20.053 3.84-29.867l-300.8-175.36c-23.040 21.333-53.333 34.56-87.040 34.56-70.827 0-128-57.173-128-128s57.173-128 128-128c33.707 0 64 13.227 87.040 34.56l303.787-177.493c-2.133-8.96-3.413-18.347-3.413-27.733 0-68.693 55.893-124.587 124.587-124.587s124.587 55.893 124.587 124.587-55.893 124.587-124.587 124.587z" />
<glyph unicode="&#xe925;" glyph-name="star" d="M512 201.814l177.067-107.093c32.427-19.627 72.107 9.387 63.573 46.080l-46.933 201.387 156.587 135.68c28.587 24.747 13.227 71.68-24.32 74.667l-206.080 17.493-80.64 190.293c-14.507 34.56-64 34.56-78.507 0l-80.64-189.867-206.080-17.493c-37.547-2.987-52.907-49.92-24.32-74.667l156.587-135.68-46.933-201.387c-8.533-36.693 31.147-65.707 63.573-46.080l177.067 106.667z" />
<glyph unicode="&#xe926;" glyph-name="star-outline" d="M838.4 552.96l-206.507 17.92-80.64 189.867c-14.507 34.56-64 34.56-78.507 0l-80.64-190.293-206.080-17.493c-37.547-2.987-52.907-49.92-24.32-74.667l156.587-135.68-46.933-201.387c-8.533-36.693 31.147-65.707 63.573-46.080l177.067 106.667 177.067-107.093c32.427-19.627 72.107 9.387 63.573 46.080l-46.933 201.813 156.587 135.68c28.587 24.747 13.653 71.68-23.893 74.667zM512 281.6l-160.427-96.853 42.667 182.613-141.653 122.88 186.88 16.213 72.533 171.947 72.96-172.373 186.88-16.213-141.653-122.88 42.667-182.613-160.853 97.28z" />
<glyph unicode="&#xe927;" glyph-name="mixer" d="M104.734 895.999c-26.053-0.082-51.146-9.845-70.402-27.394-40.108-36.993-43.351-99.459-10.795-143.492l209.798-281.182-211.036-283.742c-32.513-44.033-29.953-106.499 10.838-143.492 21.803-19.927 51.017-29.7 80.422-26.903s56.253 17.902 73.908 41.581l294.58 395.959c7.039 9.71 7.039 22.845 0 32.556l-293.385 394.039c-19.67 26.601-50.845 42.228-83.928 42.072zM919.223 895.999c-33.098 0.169-64.292-15.459-83.971-42.072l-292.702-393.399c-7.019-9.701-7.019-22.812 0-32.513l293.982-396.641c17.655-23.679 44.504-38.785 73.908-41.581s58.619 6.977 80.422 26.903c40.791 36.993 43.351 99.459 10.838 143.492l-211.078 283.742 209.798 281.182c32.513 44.033 29.313 106.499-10.838 143.492-19.259 17.54-44.353 27.289-70.402 27.35l0.043 0.044z" />
<glyph unicode="&#xe928;" glyph-name="filter" d="M128 170.667c0-23.467 19.2-42.667 42.667-42.667h213.333v85.333h-213.333c-23.467 0-42.667-19.2-42.667-42.667zM128 682.667c0-23.467 19.2-42.667 42.667-42.667h384v85.333h-384c-23.467 0-42.667-19.2-42.667-42.667zM554.667 85.334v42.667h298.667c23.467 0 42.667 19.2 42.667 42.667s-19.2 42.667-42.667 42.667h-298.667v42.667c0 23.467-19.2 42.667-42.667 42.667s-42.667-19.2-42.667-42.667v-170.667c0-23.467 19.2-42.667 42.667-42.667s42.667 19.2 42.667 42.667zM298.667 512v-42.667h-128c-23.467 0-42.667-19.2-42.667-42.667s19.2-42.667 42.667-42.667h128v-42.667c0-23.467 19.2-42.667 42.667-42.667s42.667 19.2 42.667 42.667v170.667c0 23.467-19.2 42.667-42.667 42.667s-42.667-19.2-42.667-42.667zM896 426.667c0 23.467-19.2 42.667-42.667 42.667h-384v-85.333h384c23.467 0 42.667 19.2 42.667 42.667zM682.667 554.667c23.467 0 42.667 19.2 42.667 42.667v42.667h128c23.467 0 42.667 19.2 42.667 42.667s-19.2 42.667-42.667 42.667h-128v42.667c0 23.467-19.2 42.667-42.667 42.667s-42.667-19.2-42.667-42.667v-170.667c0-23.467 19.2-42.667 42.667-42.667z" />
<glyph unicode="&#xe929;" glyph-name="twitch" d="M1001.6 938.667v-623.36l-267.072-267.008h-200.32l-133.44-133.632h-133.632v133.568h-244.736v712.32l66.752 178.112h912.448zM912.64 849.707h-734.528v-645.632h200.448v-133.44l133.44 133.44h244.8l155.84 155.84v489.792zM512 671.467v-267.072h-88.96v267.072h88.96zM756.736 671.467v-267.072h-88.96v267.072h88.96z" />
<glyph unicode="&#xe92a;" glyph-name="twitter" d="M1021.995 711.556c-37.758-16.597-78.077-27.903-120.528-33.065 43.262 26.068 76.541 67.155 92.284 116.176-40.574-23.679-85.543-40.916-133.413-50.515-38.228 40.916-92.711 66.515-153.21 66.515-115.921 0-209.911-93.991-209.911-209.783 0-16.639 1.92-32.639 5.418-47.955-174.499 8.234-329.16 92.028-432.665 218.7-18.218-30.804-28.415-66.6-28.415-105.596 0-72.957 37.118-137.082 93.351-174.755-34.431 1.109-66.813 10.581-95.057 26.282v-2.603c0-101.756 72.232-186.616 168.356-205.943-17.621-4.736-36.222-7.296-55.294-7.296-13.397 0-26.239 1.28-39.081 3.669 26.922-83.325 104.316-144.079 196.429-145.786-71.677-56.275-162.511-89.81-260.341-89.81-16.639 0-33.236 0.981-49.918 2.859 93.393-59.475 203.426-94.247 322.419-94.247 386.288 0 597.266 319.816 597.266 596.711 0 8.917 0 17.919-0.64 26.879 41.001 29.396 76.797 66.557 104.956 108.71l-2.005 0.853z" />
<glyph unicode="&#xe92b;" glyph-name="visibility" d="M512 768c-213.333 0-395.52-132.693-469.333-320 73.813-187.307 256-320 469.333-320s395.52 132.693 469.333 320c-73.813 187.307-256 320-469.333 320zM512 234.667c-117.76 0-213.333 95.573-213.333 213.333s95.573 213.333 213.333 213.333 213.333-95.573 213.333-213.333-95.573-213.333-213.333-213.333zM512 576c-70.827 0-128-57.173-128-128s57.173-128 128-128 128 57.173 128 128-57.173 128-128 128z" />
<glyph unicode="&#xe92c;" glyph-name="visibility_off" d="M512 661.334c117.76 0 213.333-95.573 213.333-213.333 0-21.76-4.267-42.667-10.24-62.293l130.56-130.56c59.307 52.48 106.24 118.187 135.68 193.28-73.813 186.88-256 319.573-469.333 319.573-54.187 0-106.24-8.533-155.307-24.32l92.587-92.587c20.053 5.973 40.96 10.24 62.72 10.24zM115.627 803.84c-16.64-16.64-16.64-43.52 0-60.16l84.053-84.053c-69.12-55.040-124.16-127.573-157.013-211.627 73.813-187.307 256-320 469.333-320 64.853 0 126.72 12.8 183.893 34.987l116.053-116.053c16.64-16.64 43.52-16.64 60.16 0s16.64 43.52 0 60.16l-695.893 696.747c-16.64 16.64-43.947 16.64-60.587 0zM512 234.667c-117.76 0-213.333 95.573-213.333 213.333 0 32.853 7.68 64 20.907 91.307l66.987-66.987c-1.28-7.68-2.56-15.787-2.56-24.32 0-70.827 57.173-128 128-128 8.533 0 16.213 1.28 24.32 2.987l66.987-66.987c-27.733-13.653-58.453-21.333-91.307-21.333zM638.72 462.080c-6.4 59.733-53.333 106.24-112.64 112.64l112.64-112.64z" />
<glyph unicode="&#xe92d;" glyph-name="arrow-back" d="M810.667 469.334h-476.587l208.213 208.213c16.64 16.64 16.64 43.947 0 60.587s-43.52 16.64-60.16 0l-281.173-281.173c-16.64-16.64-16.64-43.52 0-60.16l281.173-281.173c16.64-16.64 43.52-16.64 60.16 0s16.64 43.52 0 60.16l-208.213 208.213h476.587c23.467 0 42.667 19.2 42.667 42.667s-19.2 42.667-42.667 42.667z" />
<glyph unicode="&#xe92e;" glyph-name="chevron-down" d="M346.453 542.294l165.547-165.547 165.547 165.547c16.64 16.64 43.52 16.64 60.16 0s16.64-43.52 0-60.16l-195.84-195.84c-16.64-16.64-43.52-16.64-60.16 0l-195.84 195.84c-16.64 16.64-16.64 43.52 0 60.16 16.64 16.213 43.947 16.64 60.587 0z" />
<glyph unicode="&#xe92f;" glyph-name="chevron-left" d="M627.627 652.374c-16.64 16.64-43.52 16.64-60.16 0l-195.84-195.84c-16.64-16.64-16.64-43.52 0-60.16l195.84-195.84c16.64-16.64 43.52-16.64 60.16 0s16.64 43.52 0 60.16l-165.547 165.973 165.547 165.547c16.64 16.64 16.213 43.947 0 60.16z" />
<glyph unicode="&#xe930;" glyph-name="chevron-up" d="M346.453 311.040l165.547 165.547 165.547-165.547c16.64-16.64 43.52-16.64 60.16 0s16.64 43.52 0 60.16l-195.84 195.84c-16.64 16.64-43.52 16.64-60.16 0l-195.84-195.84c-16.64-16.64-16.64-43.52 0-60.16 16.64-16.213 43.947-16.64 60.587 0z" />
<glyph unicode="&#xe931;" glyph-name="logout" d="M789.333 448h-195.84v97.707c0 19.2-23.040 28.587-36.267 14.933l-140.373-140.373c-8.533-8.533-8.533-21.76 0-30.293l140.373-140.373c13.227-13.227 36.267-3.84 36.267 14.933v98.133h195.84c23.467 0 42.667 19.2 42.667 42.667s-19.2 42.667-42.667 42.667zM448 614.4c0 26.027-23.467 47.36-49.067 42.24-117.76-23.040-206.933-126.72-206.933-251.307s89.173-228.267 206.933-251.307c25.6-5.12 49.067 16.213 49.067 42.24 0 20.907-14.933 37.547-35.413 41.813-77.227 16.64-135.253 84.907-135.253 167.253s58.027 150.613 135.253 166.827c20.48 4.267 35.413 21.333 35.413 42.24z" />
<glyph unicode="&#xe932;" glyph-name="wazzy" d="M895.924 456.637c-0.041-0.012-0.080-0.028-0.118-0.048-0.346 10.402-1.141 20.684-2.32 30.859-60.493-15.929-123.29 13.949-123.29 13.949l99.849 79.234c-0.018 0.075-0.046 0.148-0.083 0.216-0.027 0.092-0.066 0.192-0.093 0.281-0.056 0.163-0.145 0.322-0.197 0.481-1.559 3.887-3.173 7.739-4.841 11.558-0.263 0.57-0.506 1.135-0.768 1.691-0.586 1.348-1.19 2.688-1.812 4.021-0.294 0.664-0.623 1.327-0.926 1.991-0.584 1.268-1.193 2.52-1.777 3.766-0.326 0.652-0.619 1.289-0.937 1.929-0.702 1.441-1.416 2.875-2.143 4.302-0.211 0.414-0.415 0.844-0.636 1.262-0.876 1.712-1.759 3.413-2.649 5.104v0c-62.959 119.135-185.43 193.472-318.689 193.436-159.655 0-295.113-104.949-343.016-250.538-39.076-0.377-81.138 27.857-106.143 50.628 12.715-27.824 25.405-55.674 38.782-83.126s27.376-54.559 42.45-80.932c14.953-26.338 31.258-51.862 48.848-76.468 17.371-24.375 36.591-47.338 57.486-68.678 20.513-21.027 43.285-39.654 67.891-55.532 24.102-15.503 50.303-27.36 77.776-35.198 27.146-7.565 55.259-10.946 83.396-10.029 14.073 0.399 28.104 1.762 41.997 4.079 13.216 2.186 30.074 5.135 43.348 8.67 17.864 5.161 34.735 12.174 47.658 21.696 0.626-1.891 1.181-3.766 1.736-5.623l0.883-2.771c0.294-0.919 0.56-1.838 0.877-2.751 0.663-1.811 1.181-3.644 1.878-5.414 0.337-0.904 0.66-1.792 0.965-2.684l1.012-2.645c0.66-1.763 1.417-3.497 2.13-5.222 0.346-0.856 0.754-1.712 1.11-2.557 0.415-0.846 0.726-1.712 1.154-2.535 1.575-3.362 3.241-6.639 4.997-9.83 1.21-2.109 2.427-4.18 3.712-6.208l0.844-1.369c0.061-0.066 0.109-0.143 0.142-0.228 0.224-0.26 0.359-0.43 0.359-0.43-0.027 0-0.027-0.014-0.069-0.014 2.194-3.364 4.502-6.59 6.974-9.658 1.736-2.155 3.544-4.247 5.425-6.227 1.362 1.946 2.739 3.865 4.129 5.784 3.712 5.207 7.531 10.342 11.377 15.476 3.873 5.092 7.742 10.18 11.713 15.198 3.952 5.048 7.985 10.032 12.054 14.972l12.729 15.476 6.244-17.946 1.868-5.32 1.799-5.32c1.181-3.564 2.362-7.133 3.5-10.71s2.258-7.169 3.341-10.77c0.304-1.054 0.616-2.112 0.937-3.174 1.35 0.748 2.673 1.541 3.984 2.388 3.995 2.567 7.792 5.436 11.36 8.584 3.642 3.233 7.076 6.7 10.28 10.38 3.243 3.718 6.289 7.665 9.251 11.783-1.259-4.933-2.963-9.738-5.093-14.353-2.153-4.734-4.736-9.255-7.715-13.504-3.028-4.389-6.476-8.463-10.294-12.163-1.959-1.908-4.024-3.701-6.183-5.371-1.081-0.852-2.213-1.675-3.395-2.468-0.599-0.397-1.207-0.794-1.829-1.176-0.338-0.192-0.646-0.39-0.992-0.585l-0.53-0.296-0.29-0.147c-0.115-0.058-0.169-0.099-0.388-0.193l-6.252-2.85-3.712 6.956c-1.773 3.329-3.524 6.671-5.253 10.026-1.721 3.36-3.402 6.724-5.079 10.108-0.439 0.917-0.874 1.823-1.328 2.739-0.103-0.171-0.26-0.342-0.37-0.527-3.728-5.198-7.538-10.339-11.377-15.46s-7.742-10.186-11.709-15.221c-3.925-5.041-7.982-10.024-12.027-14.978l-7.145-8.684-8.375 6.583c-0.29 0.235-0.373 0.31-0.526 0.442l-0.386 0.342c-0.25 0.216-0.461 0.428-0.699 0.638-0.456 0.416-0.877 0.811-1.296 1.234-8.268 8.953-15.913 18.478-22.881 28.505-10.134-4.902-20.513-9.266-31.094-13.074-31.842-11.905-65.484-18.099-99.42-18.303-7.573-0.048-15.085 0.138-22.535 0.556-2.194 0.106-4.063 0.236-5.543 0.342-28.598 1.982-56.862 7.406-84.197 16.159-56.7 18.173-108.096 50.746-152.86 96.829-18.179 18.728-55.068 64.458-68.225 83.094 51.538-138.771 182.981-263.867 359.808-263.867 155.865 0 288.713 100.076 339.492 240.344v0c0.82 2.302 1.625 4.622 2.432 6.943 0.074 0.268 0.162 0.532 0.263 0.791 0.729 2.242 1.473 4.495 2.194 6.754 0.081 0.312 0.179 0.62 0.294 0.921 0.695 2.287 1.401 4.584 2.060 6.891 0.070 0.183 0.126 0.371 0.169 0.563 1.384 4.779 2.675 9.591 3.873 14.437 0.069 0.281 0.152 0.565 0.211 0.842 0.56 2.316 1.117 4.634 1.618 6.955 0.062 0.342 0.159 0.685 0.224 1.037 0.53 2.336 1.012 4.676 1.483 7.033 0.057 0.245 0.1 0.494 0.128 0.745 0.506 2.458 0.969 4.913 1.421 7.383v0.014c0.422 2.443 0.817 4.89 1.203 7.342 0.052 0.32 0.108 0.644 0.142 0.972 0.359 2.34 0.705 4.695 1.012 7.057 0.056 0.397 0.106 0.799 0.148 1.188 0.317 2.384 0.609 4.745 0.886 7.128 0.027 0.317 0.042 0.623 0.093 0.941 0.267 2.48 0.506 4.964 0.729 7.46v0.046c0.238 2.489 0.415 4.988 0.584 7.468 0.010 0.37 0.052 0.717 0.083 1.075 0.142 2.381 0.273 4.776 0.38 7.177 0.027 0.438 0.039 0.868 0.056 1.304 0.1 2.407 0.194 4.805 0.25 7.229v1.058c0.049 2.544 0.097 5.077 0.097 7.617 0.018 2.787-0.023 7.451-0.072 12.715zM592.13 465.098l0.115-0.161c0 0-80.031 5.104-118.155 43.969-12.729 12.958-6.681 57.593-1.812 83.751 0.578 5.348 1.578 10.64 2.992 15.825 0.337 1.262 0.739 2.482 1.12 3.711 7.224-2.794 14.344-5.489 21.343-8.29 8.279-3.387 16.433-6.847 24.41-10.508 16.001-7.242 31.325-15.275 46.419-23.683 15.059-8.495 29.869-17.46 44.815-26.682 14.953-9.2 30.022-18.682 46.004-27.73 8.002-4.495 16.222-8.925 24.838-13.009 0.395-0.197 0.795-0.365 1.181-0.551-22.444-24.621-56.73-38.449-93.271-36.636v-0.005z" />
<glyph unicode="&#xe933;" glyph-name="following" d="M371.758 587.617l2.88-3.002c12.482-13.011 12.482-34.028 0-47.038l-178.588-186.485c-12.482-13.011-32.645-13.011-45.127 0l-98.895 103.084c-12.482 13.011-12.482 34.028 0 47.038l2.88 3.002c12.482 13.011 32.645 13.011 45.127 0l73.612-76.729 152.984 159.796c12.162 13.344 32.645 13.344 45.127 0.334zM640 768c94.293 0 170.667-76.373 170.667-170.667s-76.373-170.667-170.667-170.667c-94.293 0-170.667 76.373-170.667 170.667s76.373 170.667 170.667 170.667zM640 341.334c-113.92 0-341.333-57.173-341.333-170.667v-42.667c0-23.467 19.2-42.667 42.667-42.667h597.333c23.467 0 42.667 19.2 42.667 42.667v42.667c0 113.493-227.413 170.667-341.333 170.667z" />
<glyph unicode="&#xe934;" glyph-name="creator" d="M128 669.878v-200.544c0-236.8 163.84-458.24 384-512 220.16 53.76 384 275.2 384 512v200.544c0 33.723-19.86 64.282-50.676 77.979l-298.667 132.741c-22.064 9.806-47.25 9.806-69.314 0l-298.667-132.741c-30.816-13.696-50.676-44.256-50.676-77.979zM512 725.334c70.692 0 128-57.308 128-128s-57.308-128-128-128c-70.692 0-128 57.308-128 128s57.308 128 128 128zM730.88 213.334c-51.627-78.933-128.853-138.24-218.88-167.253-90.027 29.013-167.253 88.32-218.88 167.253-14.507 21.333-26.88 42.667-37.12 65.28 0 70.4 115.627 128 256 128s256-56.32 256-128c-10.24-22.613-22.613-43.947-37.12-65.28z" />
<glyph unicode="&#xe935;" glyph-name="moderator" d="M477.343 880.597l-298.667-132.741c-30.816-13.696-50.676-44.256-50.676-77.979v-200.544c0-236.8 163.84-458.24 384-512 220.16 53.76 384 275.2 384 512v200.544c0 33.723-19.86 64.282-50.676 77.979l-298.667 132.741c-22.064 9.806-47.25 9.806-69.314 0z" />
<glyph unicode="&#xe936;" glyph-name="notifications-off" d="M512-0c46.933 0 85.333 38.4 85.333 85.333h-170.667c0-46.933 37.973-85.333 85.333-85.333zM768 469.334c0 130.987-69.973 240.64-192 269.653v29.013c0 35.413-28.587 64-64 64s-64-28.587-64-64v-29.013c-10.24-2.56-20.053-6.4-29.44-9.813l349.44-349.44v89.6zM230.827 795.734l-60.16-60.16 119.893-119.893c-22.187-42.667-34.56-92.16-34.56-146.347v-213.333l-55.040-55.040c-26.88-26.88-8.107-72.96 29.867-72.96h547.413l74.24-74.24 60.16 60.16-681.813 681.813z" />
<glyph unicode="&#xe937;" glyph-name="channel" d="M313.892 237.037h-110.796c-17.907 0-32.423 14.516-32.423 32.423 0 1.844 0.157 3.685 0.47 5.502 3.774 21.914 22.779 37.926 45.015 37.926h110.796l39.559 227.556h-110.796c-17.907 0-32.423 14.516-32.423 32.423 0 1.844 0.157 3.685 0.47 5.502 3.774 21.914 22.779 37.926 45.015 37.926h110.796l20.076 114.94c3.712 21.254 22.165 36.763 43.741 36.763 17.323 0 31.366-14.043 31.366-31.366 0-1.809-0.157-3.615-0.468-5.397l-20.076-114.94h223.92l20.076 114.94c3.712 21.254 22.165 36.763 43.741 36.763 17.323 0 31.366-14.043 31.366-31.366 0-1.809-0.157-3.615-0.468-5.397l-20.076-114.94h110.796c17.907 0 32.423-14.516 32.423-32.423 0-1.844-0.157-3.685-0.47-5.502-3.774-21.914-22.779-37.926-45.015-37.926h-110.796l-39.559-227.556h110.796c17.907 0 32.423-14.516 32.423-32.423 0-1.844-0.157-3.685-0.47-5.502-3.774-21.914-22.779-37.926-45.015-37.926h-110.796l-20.076-114.94c-3.712-21.254-22.165-36.763-43.741-36.763-17.323 0-31.366 14.043-31.366 31.366 0 1.809 0.157 3.615 0.468 5.397l20.076 114.94h-223.92l-20.076-114.94c-3.712-21.254-22.165-36.763-43.741-36.763-17.323 0-31.366 14.043-31.366 31.366 0 1.809 0.157 3.615 0.468 5.397l20.076 114.94zM441.153 540.445l-39.559-227.556h223.92l39.559 227.556h-223.92z" />
<glyph unicode="&#xe938;" glyph-name="game" d="M896 682.667h-768c-46.933 0-85.333-38.4-85.333-85.333v-341.333c0-46.933 38.4-85.333 85.333-85.333h768c46.933 0 85.333 38.4 85.333 85.333v341.333c0 46.933-38.4 85.333-85.333 85.333zM426.667 384h-85.333v-85.333c0-23.467-19.2-42.667-42.667-42.667s-42.667 19.2-42.667 42.667v85.333h-85.333c-23.467 0-42.667 19.2-42.667 42.667s19.2 42.667 42.667 42.667h85.333v85.333c0 23.467 19.2 42.667 42.667 42.667s42.667-19.2 42.667-42.667v-85.333h85.333c23.467 0 42.667-19.2 42.667-42.667s-19.2-42.667-42.667-42.667zM661.333 298.667c-35.413 0-64 28.587-64 64s28.587 64 64 64 64-28.587 64-64-28.587-64-64-64zM832 426.667c-35.413 0-64 28.587-64 64s28.587 64 64 64 64-28.587 64-64-28.587-64-64-64z" />
<glyph unicode="&#xe939;" glyph-name="add-comment" d="M938.667 768c0 46.933-38.4 85.333-85.333 85.333h-682.667c-46.933 0-85.333-38.4-85.333-85.333v-512c0-46.933 38.4-85.333 85.333-85.333h597.333l170.667-170.667v768zM682.667 469.334h-128v-128c0-23.467-19.2-42.667-42.667-42.667s-42.667 19.2-42.667 42.667v128h-128c-23.467 0-42.667 19.2-42.667 42.667s19.2 42.667 42.667 42.667h128v128c0 23.467 19.2 42.667 42.667 42.667s42.667-19.2 42.667-42.667v-128h128c23.467 0 42.667-19.2 42.667-42.667s-19.2-42.667-42.667-42.667z" />
<glyph unicode="&#xe93a;" glyph-name="check-outline" d="M512 853.334c-235.52 0-426.667-191.147-426.667-426.667s191.147-426.667 426.667-426.667 426.667 191.147 426.667 426.667-191.147 426.667-426.667 426.667zM512 85.334c-188.16 0-341.333 153.173-341.333 341.333s153.173 341.333 341.333 341.333 341.333-153.173 341.333-341.333-153.173-341.333-341.333-341.333zM677.547 584.96l-250.88-250.88-80.213 80.213c-16.64 16.64-43.52 16.64-60.16 0s-16.64-43.52 0-60.16l110.507-110.507c16.64-16.64 43.52-16.64 60.16 0l281.173 281.173c16.64 16.64 16.64 43.52 0 60.16s-43.947 16.64-60.587 0z" />
<glyph unicode="&#xe93b;" glyph-name="invite" d="M853.333 768h-682.667c-46.933 0-84.907-38.4-84.907-85.333l-0.427-512c0-46.933 38.4-85.333 85.333-85.333h682.667c46.933 0 85.333 38.4 85.333 85.333v512c0 46.933-38.4 85.333-85.333 85.333zM836.267 586.667l-301.653-188.587c-13.653-8.533-31.573-8.533-45.227 0l-301.653 188.587c-10.667 6.827-17.067 18.347-17.067 30.72 0 28.587 31.147 45.653 55.467 30.72l285.867-178.773 285.867 178.773c24.32 14.933 55.467-2.133 55.467-30.72 0-12.373-6.4-23.893-17.067-30.72z" />
<glyph unicode="&#xe93c;" glyph-name="explore" d="M512 473.6c-26.027 0-46.933-20.907-46.933-46.933s20.907-46.933 46.933-46.933c26.027 0 46.933 20.907 46.933 46.933s-20.907 46.933-46.933 46.933zM512 853.334c-235.52 0-426.667-191.147-426.667-426.667s191.147-426.667 426.667-426.667 426.667 191.147 426.667 426.667-191.147 426.667-426.667 426.667zM605.44 333.227l-349.44-162.56 162.56 349.44 349.44 162.56-162.56-349.44z" />
<glyph unicode="&#xe93d;" glyph-name="open-in-new" d="M768 128h-512c-23.467 0-42.667 19.2-42.667 42.667v512c0 23.467 19.2 42.667 42.667 42.667h213.333c23.467 0 42.667 19.2 42.667 42.667s-19.2 42.667-42.667 42.667h-256c-47.36 0-85.333-38.4-85.333-85.333v-597.333c0-46.933 38.4-85.333 85.333-85.333h597.333c46.933 0 85.333 38.4 85.333 85.333v256c0 23.467-19.2 42.667-42.667 42.667s-42.667-19.2-42.667-42.667v-213.333c0-23.467-19.2-42.667-42.667-42.667zM597.333 768c0-23.467 19.2-42.667 42.667-42.667h110.507l-389.547-389.547c-16.64-16.64-16.64-43.52 0-60.16s43.52-16.64 60.16 0l389.547 389.547v-110.507c0-23.467 19.2-42.667 42.667-42.667s42.667 19.2 42.667 42.667v213.333c0 23.467-19.2 42.667-42.667 42.667h-213.333c-23.467 0-42.667-19.2-42.667-42.667z" />
<glyph unicode="&#xe93e;" glyph-name="public" d="M512 853.334c-235.52 0-426.667-191.147-426.667-426.667s191.147-426.667 426.667-426.667 426.667 191.147 426.667 426.667-191.147 426.667-426.667 426.667zM469.333 88.32c-168.533 20.907-298.667 164.267-298.667 338.347 0 26.453 3.413 51.627 8.96 76.373l204.373-204.373v-42.667c0-46.933 38.4-85.333 85.333-85.333v-82.347zM763.733 196.694c-11.093 34.56-42.667 59.307-81.067 59.307h-42.667v128c0 23.467-19.2 42.667-42.667 42.667h-256v85.333h85.333c23.467 0 42.667 19.2 42.667 42.667v85.333h85.333c46.933 0 85.333 38.4 85.333 85.333v17.493c125.013-50.773 213.333-173.227 213.333-316.16 0-88.747-34.133-169.387-89.6-229.973z" />
<glyph unicode="&#xe93f;" glyph-name="refresh" d="M753.067 667.734c-69.547 69.547-168.107 109.653-276.48 98.56-156.587-15.787-285.44-142.933-302.933-299.52-23.467-206.933 136.533-381.44 338.347-381.44 136.107 0 253.013 79.787 307.627 194.56 13.653 28.587-6.827 61.44-38.4 61.44-15.787 0-30.72-8.533-37.547-22.613-48.213-103.68-163.84-169.387-290.133-141.227-94.72 20.907-171.093 98.133-191.147 192.853-35.84 165.547 90.027 312.32 249.6 312.32 70.827 0 133.973-29.44 180.053-75.947l-64.427-64.427c-26.88-26.88-8.107-72.96 29.867-72.96h153.173c23.467 0 42.667 19.2 42.667 42.667v153.173c0 37.973-46.080 57.173-72.96 30.293l-27.307-27.733z" />
<glyph unicode="&#xe940;" glyph-name="star-circle" d="M511.573 853.334c-235.52 0-426.24-191.147-426.24-426.667s190.72-426.667 426.24-426.667c235.947 0 427.093 191.147 427.093 426.667s-191.147 426.667-427.093 426.667zM649.387 196.694l-137.387 82.773-137.387-82.773c-16.213-9.813-36.267 4.693-32 23.040l36.267 156.16-120.747 104.533c-14.080 12.373-6.4 35.84 12.373 37.547l159.573 13.653 62.293 147.2c7.253 17.493 32 17.493 39.253 0l62.293-146.773 159.573-13.653c18.773-1.707 26.453-25.173 11.947-37.547l-120.747-104.533 36.267-156.587c4.267-18.347-15.36-32.853-31.573-23.040z" />
<glyph unicode="&#xe941;" glyph-name="lfg" d="M512 597.334c-94.293 0-170.667-76.373-170.667-170.667s76.373-170.667 170.667-170.667 170.667 76.373 170.667 170.667-76.373 170.667-170.667 170.667zM893.44 469.334c-19.627 177.92-160.853 319.147-338.773 338.773v45.227c0 23.467-19.2 42.667-42.667 42.667s-42.667-19.2-42.667-42.667v-45.227c-177.92-19.627-319.147-160.853-338.773-338.773h-45.227c-23.467 0-42.667-19.2-42.667-42.667s19.2-42.667 42.667-42.667h45.227c19.627-177.92 160.853-319.147 338.773-338.773v-45.227c0-23.467 19.2-42.667 42.667-42.667s42.667 19.2 42.667 42.667v45.227c177.92 19.627 319.147 160.853 338.773 338.773h45.227c23.467 0 42.667 19.2 42.667 42.667s-19.2 42.667-42.667 42.667h-45.227zM512 128c-165.12 0-298.667 133.547-298.667 298.667s133.547 298.667 298.667 298.667 298.667-133.547 298.667-298.667-133.547-298.667-298.667-298.667z" />
<glyph unicode="&#xe942;" glyph-name="gif" d="M853.333 768c46.933 0 85.333-38.4 85.333-85.333v0-512c0-46.933-38.4-85.333-85.333-85.333v0h-682.667c-46.933 0-85.333 38.4-85.333 85.333v0l0.427 512c0 46.933 37.973 85.333 84.907 85.333v0zM522.667 554.667c-17.493 0-32-14.507-32-32v0-192c0-17.493 14.507-32 32-32s32 14.507 32 32v0 192c0 17.493-14.507 32-32 32zM394.667 554.667h-138.667c-25.6 0-42.667-21.333-42.667-42.667v-170.667c0-21.333 17.067-42.667 42.667-42.667h128c25.6 0 42.667 21.333 42.667 42.667v53.333c0 17.493-14.507 32-32 32s-32-14.507-32-32v-32h-85.333v128h117.333c17.493 0 32 14.507 32 32s-14.507 32-32 32zM778.667 554.667h-117.333c-23.467 0-42.667-19.2-42.667-42.667v-181.333c0-17.493 14.507-32 32-32s32 14.507 32 32v53.333h53.333c17.493 0 32 14.507 32 32s-14.507 32-32 32h-53.333v42.667h96c17.493 0 32 14.507 32 32s-14.507 32-32 32z" />
<glyph unicode="&#xe943;" glyph-name="emoji" d="M511.573 853.334c-235.52 0-426.24-191.147-426.24-426.667s190.72-426.667 426.24-426.667c235.947 0 427.093 191.147 427.093 426.667s-191.147 426.667-427.093 426.667zM362.667 597.334c35.413 0 64-28.587 64-64s-28.587-64-64-64-64 28.587-64 64 28.587 64 64 64zM712.96 310.614c-38.827-83.2-113.92-139.947-200.96-139.947s-162.133 56.747-200.96 139.947c-6.827 14.080 3.413 30.72 19.2 30.72h363.52c15.787 0 26.027-16.64 19.2-30.72zM661.333 469.334c-35.413 0-64 28.587-64 64s28.587 64 64 64 64-28.587 64-64-28.587-64-64-64z" />
<glyph unicode="&#xe944;" glyph-name="copy" d="M810.667 42.667h-469.333v597.333h469.333zM810.667 725.334h-469.333c-47.128 0-85.333-38.205-85.333-85.333v0-597.333c0-47.128 38.205-85.333 85.333-85.333v0h469.333c47.128 0 85.333 38.205 85.333 85.333v0 597.333c0 47.128-38.205 85.333-85.333 85.333v0zM682.667 896h-512c-47.128 0-85.333-38.205-85.333-85.333v0-597.333h85.333v597.333h512v85.333z" />
<glyph unicode="&#xe945;" glyph-name="error" d="M512 853.334c-235.52 0-426.667-191.147-426.667-426.667s191.147-426.667 426.667-426.667 426.667 191.147 426.667 426.667-191.147 426.667-426.667 426.667zM512 384c-23.467 0-42.667 19.2-42.667 42.667v170.667c0 23.467 19.2 42.667 42.667 42.667s42.667-19.2 42.667-42.667v-170.667c0-23.467-19.2-42.667-42.667-42.667zM554.667 213.334h-85.333v85.333h85.333v-85.333z" />
<glyph unicode="&#xe946;" glyph-name="memberlist" d="M170.667 490.667c-35.413 0-64-28.587-64-64s28.587-64 64-64 64 28.587 64 64-28.587 64-64 64zM170.667 746.667c-35.413 0-64-28.587-64-64s28.587-64 64-64 64 28.587 64 64-28.587 64-64 64zM170.667 234.667c-35.413 0-64-29.013-64-64s29.013-64 64-64 64 29.013 64 64-28.587 64-64 64zM341.333 128h512c23.467 0 42.667 19.2 42.667 42.667s-19.2 42.667-42.667 42.667h-512c-23.467 0-42.667-19.2-42.667-42.667s19.2-42.667 42.667-42.667zM341.333 384h512c23.467 0 42.667 19.2 42.667 42.667s-19.2 42.667-42.667 42.667h-512c-23.467 0-42.667-19.2-42.667-42.667s19.2-42.667 42.667-42.667zM298.667 682.667c0-23.467 19.2-42.667 42.667-42.667h512c23.467 0 42.667 19.2 42.667 42.667s-19.2 42.667-42.667 42.667h-512c-23.467 0-42.667-19.2-42.667-42.667z" />
<glyph unicode="&#xe947;" glyph-name="announcements" d="M356.693 178.347c0-51.37-41.643-93.013-93.013-93.013s-93.013 41.643-93.013 93.013c0 51.37 41.643 93.013 93.013 93.013s93.013-41.643 93.013-93.013zM238.507 502.187c-35.84 5.973-67.84-23.467-67.84-59.733 0-30.293 22.613-54.613 52.48-59.733 124.587-21.76 222.72-120.32 244.907-244.907 5.12-29.867 29.44-52.48 59.733-52.48 36.267 0 65.707 32 60.16 67.84-29.013 179.2-170.24 320.427-349.44 349.013zM237.227 745.814c-35.413 3.84-66.56-24.747-66.56-60.16 0-31.147 23.467-56.747 54.187-59.733 256.427-25.6 460.373-229.547 485.973-485.973 2.987-31.147 28.587-54.613 59.733-54.613 35.84 0 64 31.147 60.587 66.56-31.147 313.173-280.32 562.773-593.92 593.92z" />
<glyph unicode="&#xe948;" d="M1017.213 913.317c-1.198 2.196-2.994 3.992-4.99 5.389 0.798 3.992 0.2 8.184-1.796 11.777-0.998 1.796-2.595 3.593-4.391 4.791-6.587 4.99-15.969 4.192-21.758-1.796l-9.182-9.581-17.166-6.986c-5.389 1.996-11.378 2.196-17.765 0.599-3.393-0.798-4.391-0.599-7.386 0-6.388 1.198-13.174 1.996-23.953-1.597-3.793 0.2-8.184-0.399-15.17-2.595-8.583-2.795-13.773-9.382-17.566-14.372-0.399-0.599-0.998-1.397-1.597-1.996-23.554-5.988-33.734-19.163-38.325-29.143-1.397-2.994-2.395-6.188-2.994-9.581-4.591 3.393-9.382 6.188-13.773 8.384-27.347 12.575-62.678 7.386-87.828-12.975-26.748-21.558-37.327-54.893-29.343-91.421 3.194-14.572 9.182-29.143 18.165-44.713 18.564-32.137 46.709-61.879 73.856-90.623 23.953-25.35 46.709-49.304 59.683-71.86 0.798-1.397 1.597-2.795 2.196-4.192 16.767-31.938 13.773-55.492-9.182-70.063-8.384-5.19-16.967-7.585-24.352-8.384 8.184 23.754 11.777 56.889-6.188 87.828-3.593 6.188-7.785 11.977-12.775 17.366-33.734 36.928-69.265 28.744-83.437 19.163-6.388-4.192-8.982-12.176-6.188-19.362 0.399-0.798 0.798-1.796 1.198-2.595 3.194-5.589 9.581-8.783 16.168-7.984 14.971 1.796 31.339-8.184 40.92-24.752 3.992-6.787 14.172-28.943-0.399-52.897-9.182 7.186-16.767 15.37-22.955 21.957-0.998 0.998-1.996 1.996-2.795 2.994-0.399 0.399-0.998 0.998-1.597 1.796-27.945 30.54-55.292 47.906-81.641 51.499-0.2 20.161-5.988 41.12-17.366 61.68-13.374 24.352-33.934 46.709-57.687 62.877-4.192 2.795-7.785 4.99-11.378 6.787-9.182 69.265-54.693 104.995-95.613 115.574-49.104 12.575-98.607-6.388-126.154-48.505-2.395-3.593-4.791-7.386-6.986-11.178-20.759-35.93-32.736-77.648-44.114-118.169-9.781-34.333-18.963-66.869-32.936-93.018-0.798-1.597-1.597-2.994-2.395-4.391-9.182-15.969-17.366-24.752-25.949-27.546-4.192-1.397-9.581-1.597-15.969 2.595-8.583 5.988-6.587 17.965 0.998 41.319 2.196 6.787 4.391 13.174 5.389 18.963 2.595 15.37-0.399 29.742-8.583 40.321-7.785 10.18-19.761 16.368-33.535 17.566-13.174 1.198-32.137-3.393-48.106-30.74-1.397-2.395-2.595-4.591-3.393-6.188-2.395 5.988-5.789 14.172-13.573 19.362-5.988 4.192-9.981 5.988-13.773 6.986-9.382 6.587-15.969 7.785-22.556 8.384-2.994 0.399-4.192 0.399-7.386 2.196-5.988 3.393-12.376 4.791-18.364 4.192l-13.773 10.779-6.188 11.777c-3.793 7.386-12.775 10.779-20.56 7.585-3.593-1.397-6.388-3.992-8.184-6.986-1.198-2.196-1.996-4.591-2.196-7.186-3.992-1.198-7.186-3.992-9.382-7.386-0.998-1.796-1.796-3.992-1.996-6.188-0.998-8.184 4.192-15.969 12.376-17.965l12.975-3.194 14.572-11.378c0.998-5.589 3.793-10.979 8.384-15.57 2.395-2.395 2.795-3.393 3.793-6.388 2.196-6.188 4.791-12.376 13.374-19.961 1.796-3.393 4.391-6.986 9.781-11.777 6.787-5.988 15.17-7.186 21.159-7.984 0.798-0.2 1.597-0.2 2.595-0.399 16.967-17.366 33.335-19.761 44.313-18.564 3.393 0.399 6.587 0.998 9.781 2.196-0.599-5.589-0.798-11.178-0.2-16.168 2.795-29.942 24.951-58.087 55.092-69.664 32.137-12.376 66.271-4.99 93.817 20.36 10.979 10.18 20.759 22.556 29.542 38.126 18.564 32.137 30.341 71.46 41.519 109.386 9.981 33.535 19.362 65.073 32.337 87.629 0.798 1.397 1.597 2.795 2.395 3.992 19.362 30.54 41.319 39.722 65.273 26.947 8.783-4.591 14.971-10.779 19.562-16.767-24.552-4.791-55.092-18.364-73.057-49.304-3.593-6.188-6.388-12.775-8.583-19.562-15.17-47.507 9.781-74.455 25.151-81.84 6.787-3.393 14.971-1.597 19.961 4.192 0.599 0.798 1.198 1.397 1.597 2.196 3.194 5.589 2.994 12.775-1.198 17.965-8.982 11.977-8.783 31.339 0.998 47.906 3.992 6.787 17.965 26.748 46.11 26.149-1.597-11.577-4.99-22.356-7.585-30.74-0.399-1.397-0.798-2.795-1.198-3.992-0.2-0.599-0.399-1.397-0.798-2.395-12.575-39.523-13.773-71.86-3.793-96.412-17.366-10.18-32.736-25.75-44.912-45.91-14.372-23.754-23.554-52.697-25.75-81.441-0.399-4.99-0.399-9.182-0.2-13.174-55.292-42.517-63.476-100.005-52.098-140.725 13.573-48.705 54.893-82.040 104.995-85.034 4.391-0.2 8.783-0.399 13.174-0.399 41.519 0 83.637 10.579 124.357 20.759 34.732 8.783 67.468 16.967 97.011 17.965 1.796 0 3.393 0 5.19 0 18.364 0 29.942-2.595 36.728-8.783 3.194-2.795 6.188-7.386 5.589-15.17-0.798-10.38-12.376-14.771-36.329-19.761-6.986-1.397-13.573-2.795-19.163-4.99-14.572-5.389-25.55-15.17-30.54-27.546-4.791-11.777-4.192-25.151 1.597-37.726 5.589-11.977 18.963-26.349 50.701-26.349 2.795 0 5.19 0.2 7.186 0.2-3.992-5.19-9.182-12.176-10.18-21.358-0.599-7.186-0.2-11.777 0.798-15.37-0.998-11.378 1.397-17.765 3.992-23.754 1.198-2.795 1.796-3.793 1.796-7.386 0-6.787 1.996-12.975 5.589-17.965l-2.595-17.366-7.186-11.178c-4.591-7.186-2.994-16.568 3.593-21.758 2.994-2.395 6.587-3.593 10.18-3.593 2.595 0 4.99 0.599 7.186 1.597 2.994-2.795 6.986-4.391 11.178-4.391 2.196 0 4.192 0.399 6.388 1.198 7.585 3.194 11.777 11.777 9.382 19.761l-3.793 12.775 2.595 18.364c4.391 3.593 7.585 8.783 9.382 14.971 0.998 3.393 1.597 4.192 3.593 6.388 4.391 4.99 8.384 10.38 10.779 21.558 1.996 3.194 3.793 7.386 5.19 14.372 1.796 8.982-1.397 16.568-3.593 22.356-0.2 0.599-0.599 1.597-0.998 2.395 6.587 23.354 0.399 38.924-6.188 47.707-1.996 2.795-4.192 5.19-6.787 7.386 5.19 2.395 9.981 4.99 14.172 7.785 24.552 17.366 37.726 50.701 32.736 82.639-5.389 33.934-28.943 59.883-64.674 71.061-14.172 4.391-29.942 6.587-47.707 6.587-37.127 0-77.050-9.581-115.574-18.763-33.934-8.184-66.071-15.769-92.020-15.769-1.597 0-3.194 0-4.791 0-36.129 1.397-55.092 15.969-56.090 43.116-0.399 9.981 1.796 18.364 4.791 25.35 16.568-18.963 43.515-38.525 79.245-38.525 6.986 0 14.172 0.798 21.358 2.395 48.705 10.779 59.484 45.711 58.286 62.678-0.599 7.585-6.188 13.773-13.573 15.17-0.998 0.2-1.796 0.2-2.795 0.2-6.388 0-12.575-3.793-15.17-9.981-5.988-13.773-22.756-23.155-41.918-23.155-7.984 0-32.137 2.196-45.711 26.748 10.979 4.391 21.758 6.787 30.341 8.783 1.397 0.399 2.795 0.599 3.992 0.998 0.599 0.2 1.397 0.399 2.395 0.599 40.521 8.783 69.065 23.953 85.433 44.912 17.566-9.981 38.724-15.37 62.079-15.969 27.945-0.599 57.488 5.988 83.437 18.564 4.391 2.196 8.184 4.192 11.577 6.388 64.474-26.748 118.369-5.19 147.911 25.151 35.331 36.129 43.715 88.627 21.159 133.539-1.996 3.793-3.992 7.785-6.188 11.577-20.759 35.93-50.901 67.069-80.243 97.41-24.951 25.75-48.306 49.903-64.075 75.053-0.998 1.397-1.796 2.994-2.595 4.391-9.182 15.969-12.775 27.347-10.779 36.129 0.998 4.192 3.393 9.182 10.38 12.376 9.382 4.591 18.963-3.393 35.131-21.558 4.791-5.389 9.182-10.38 13.773-14.172 11.977-9.981 25.949-14.572 39.124-12.775 12.575 1.796 23.953 8.982 31.938 20.36 7.585 10.779 13.174 29.542-2.595 56.889-1.397 2.395-2.595 4.391-3.793 5.988 6.388-0.798 15.17-1.996 23.554 1.996 6.587 2.994 10.18 5.589 12.975 8.384 10.38 4.791 14.771 9.981 18.564 15.37 1.796 2.395 2.395 3.393 5.589 5.19 5.988 3.393 10.18 8.384 12.775 13.773l16.368 6.587 13.174-0.599c8.384-0.399 15.769 5.589 16.967 13.973 1.796 5.19 0.998 8.783-0.798 11.977zM568.689 618.892c7.386-11.378 12.575-23.354 15.57-36.329 3.593-15.37 1.796-26.947-0.599-32.337-3.593-7.984-14.172-7.984-18.165 9.781-3.393 15.37 1.597 45.511 3.194 58.885zM547.531 445.63c-11.777-10.779-40.321-21.558-52.697-26.748 6.188 11.977 13.973 22.556 23.754 31.538 11.378 10.779 22.356 15.17 28.345 15.769 8.583 0.798 13.773-8.384 0.599-20.56zM665.7 459.603c-14.971 4.591-24.153 11.777-27.746 16.568-5.19 6.986 0.2 16.168 17.366 10.779 15.17-4.791 38.924-24.153 49.503-32.137-13.374-0.599-26.349 0.798-39.124 4.791z" />
<glyph unicode="&#xe949;" d="M1003.041 905.132l-14.971 3.593 7.984 13.573-11.577-12.176-28.145-11.378c-2.196 2.595-5.988 4.591-11.977 2.994-14.971-3.793-15.57 4.192-32.337-1.996-3.393-1.198-2.196 1.597-13.174-1.996-7.585-2.395-11.777-14.771-17.765-15.969-38.325-8.384-37.527-38.724-23.155-59.085 3.992-5.589 5.988-9.182 3.992-11.378-1.397-1.597-4.791-2.994-9.182 3.593-8.384 12.975-25.949 30.54-40.321 37.127-43.515 19.961-109.786-16.967-94.216-86.032 17.166-76.65 119.566-144.518 152.502-207.395 24.352-46.31 9.781-75.852-14.971-91.621-20.161-12.575-42.118-13.174-57.887-9.382 13.374 20.56 28.943 70.662-5.988 108.788-32.936 36.129-62.278 16.568-62.278 16.568 47.108 5.789 95.214-63.875 46.11-116.173-18.564 10.979-32.337 26.748-41.12 35.93-7.186 7.585-45.91 53.895-89.026 48.505 8.184 46.31-23.554 98.009-66.47 127.351-6.188 4.192-10.979 6.787-17.366 9.581-9.581 120.365-140.526 148.31-192.823 68.865-42.517-64.873-50.102-158.69-83.237-221.168-15.57-29.542-40.321-54.094-68.067-35.131-26.748 18.165-3.992 56.689-0.399 76.65 3.793 22.157-8.384 37.127-27.347 38.724-21.758 1.796-33.135-23.754-36.928-30.94-8.384-15.769-20.161-8.583-24.352-3.992-3.793 4.192-5.389 15.769-11.777 20.36-9.382 6.587-8.982 3.393-11.977 5.589-14.172 10.779-16.967 3.393-30.341 11.178-5.19 2.994-10.18 2.595-13.374 0l-23.554 18.564-7.785 14.971 4.192-14.771-15.57 0.2 16.368-3.992 23.754-18.763c-1.198-3.194-0.998-7.386 3.393-11.977 10.779-11.178 4.192-15.57 17.765-26.947 2.795-2.395-0.2-2.795 8.184-10.38 5.988-5.19 18.564-2.795 22.756-7.386 26.548-28.943 52.298-13.174 62.678 9.581 2.795 6.188 4.99 9.781 7.984 9.182 2.196-0.399 4.99-2.595 1.397-9.781-6.986-13.773-13.374-37.726-11.977-53.496 4.391-47.507 69.464-86.431 121.563-38.724 57.887 53.096 65.472 175.857 103.198 235.74 27.945 44.114 60.881 46.509 86.83 32.736 20.959-11.178 32.536-29.942 37.127-45.511-24.352 1.397-75.652-10.38-91.222-59.683-14.771-46.709 16.767-62.278 16.767-62.278-28.544 37.926 7.785 114.377 77.648 98.009-0.2-21.558-6.986-41.519-10.579-53.496-2.994-9.981-23.754-66.67 2.595-101.202-44.313-15.969-73.257-69.464-77.050-121.363-0.599-7.386-0.2-12.975 0.399-19.761-99.406-68.466-58.286-195.818 36.728-201.407 77.449-4.591 162.483 35.93 233.145 38.525 33.535 1.198 66.869-7.984 64.474-41.319-2.395-32.137-47.108-31.738-66.071-38.724-21.159-7.785-27.945-25.75-19.761-43.116 9.182-19.761 37.127-16.767 45.112-16.568 17.965 0.798 17.566-13.174 15.57-18.963-1.796-5.389-10.979-12.575-11.577-20.36-0.998-11.378 1.597-9.581 1.198-13.174-2.196-17.765 5.389-16.368 5.589-31.938 0-5.988 2.795-10.18 6.787-11.378l-4.192-29.742-8.982-14.172 10.579 10.979 7.785-13.573-4.791 16.168 4.391 29.942c3.393 0.599 6.986 2.795 8.583 8.982 4.192 14.971 11.378 11.378 14.372 28.943 0.599 3.593 2.595 1.198 4.791 12.376 1.597 7.785-6.787 17.566-4.99 23.354 11.777 37.527-14.771 51.899-39.722 49.503-6.787-0.599-10.979-0.599-11.977 2.196-0.599 1.996-0.2 5.789 7.585 6.188 15.57 0.798 39.323 7.186 52.298 16.368 38.924 27.746 40.122 103.398-27.347 124.756-75.053 23.554-185.039-31.339-255.9-28.544-52.298 1.996-70.662 29.542-71.66 58.885-0.798 23.754 9.581 43.116 20.959 54.893 10.979-21.957 46.709-60.282 97.21-49.304 47.906 10.579 45.511 45.711 45.511 45.711-18.564-43.715-102.999-50.501-123.758 18.165 18.763 10.579 39.323 14.771 51.699 17.566 10.18 2.395 69.664 12.775 86.431 52.897 35.93-30.341 96.611-28.744 143.52-5.988 6.587 3.194 11.378 6.188 16.967 10.38 108.987-51.899 198.812 47.507 156.095 132.541-34.732 69.265-112.381 122.76-149.907 182.643-17.765 28.345-26.548 61.879 3.593 76.451 29.143 13.973 51.1-24.951 66.67-37.926 17.366-14.372 36.329-11.178 47.108 4.391 12.376 17.965-3.992 40.521-8.184 47.308-9.581 15.17 2.595 21.758 8.583 22.955 5.589 1.198 16.368-3.194 23.554 0.2 10.38 4.791 7.585 6.188 10.779 7.585 16.368 6.986 11.378 12.975 24.752 20.759 5.19 2.994 7.386 7.585 6.587 11.577l27.945 11.178 16.967-0.798zM558.31 655.819c21.758-18.165 36.129-45.112 41.719-69.664 4.391-18.963 1.198-35.93-4.591-45.711-10.38-18.165-38.724-20.161-46.31 16.767-5.589 28.744 6.388 76.251 9.182 98.607zM557.91 432.855c-21.957-19.362-69.065-32.736-89.825-41.519 4.791 27.746 20.959 53.895 39.323 71.061 14.172 13.374 30.341 18.963 41.918 18.963 20.959 0.2 36.728-23.554 8.583-48.505zM661.109 443.833c-18.564 5.589-31.738 16.967-37.327 26.748-10.579 18.165 1.996 43.715 37.726 31.738 27.746-9.182 62.877-43.315 80.842-57.088-26.748-9.581-57.488-8.583-81.241-1.397z" />
<glyph unicode="&#xe94a;" d="M1017.213 913.317c-1.198 2.196-2.994 3.992-4.99 5.389 0.798 3.992 0.2 8.184-1.796 11.777-0.998 1.796-2.595 3.593-4.391 4.791-6.587 4.99-15.969 4.192-21.758-1.796l-9.182-9.581-17.166-6.986c-5.389 1.996-11.378 2.196-17.765 0.599-3.393-0.798-4.391-0.599-7.386 0-6.388 1.198-13.174 1.996-23.953-1.597-3.793 0.2-8.184-0.399-15.17-2.595-8.583-2.795-13.773-9.382-17.566-14.372-0.399-0.599-0.998-1.397-1.597-1.996-23.554-5.988-33.734-19.163-38.325-29.143-1.397-2.994-2.395-6.188-2.994-9.581-4.591 3.393-9.382 6.188-13.773 8.384-27.347 12.575-62.678 7.386-87.828-12.975-26.748-21.558-37.327-54.893-29.343-91.421 3.194-14.572 9.182-29.143 18.165-44.713 18.564-32.137 46.709-61.879 73.856-90.623 23.953-25.35 46.709-49.304 59.683-71.86 0.798-1.397 1.597-2.795 2.196-4.192 16.767-31.938 13.773-55.492-9.182-70.063-8.384-5.19-16.967-7.585-24.352-8.384 8.184 23.754 11.777 56.889-6.188 87.828-3.593 6.188-7.785 11.977-12.775 17.366-33.734 36.928-69.265 28.744-83.437 19.163-6.388-4.192-8.982-12.176-6.188-19.362 0.399-0.798 0.798-1.796 1.198-2.595 3.194-5.589 9.581-8.783 16.168-7.984 14.971 1.796 31.339-8.184 40.92-24.752 3.992-6.787 14.172-28.943-0.399-52.897-9.182 7.186-16.767 15.37-22.955 21.957-0.998 0.998-1.996 1.996-2.795 2.994-0.399 0.399-0.998 0.998-1.597 1.796-27.945 30.54-55.292 47.906-81.641 51.499-0.2 20.161-5.988 41.12-17.366 61.68-13.374 24.352-33.934 46.709-57.687 62.877-4.192 2.795-7.785 4.99-11.378 6.787-9.182 69.265-54.693 104.995-95.613 115.574-49.104 12.575-98.607-6.388-126.154-48.505-2.395-3.593-4.791-7.386-6.986-11.178-20.759-35.93-32.736-77.648-44.114-118.169-9.781-34.333-18.963-66.869-32.936-93.018-0.798-1.597-1.597-2.994-2.395-4.391-9.182-15.969-17.366-24.752-25.949-27.546-4.192-1.397-9.581-1.597-15.969 2.595-8.583 5.988-6.587 17.965 0.998 41.319 2.196 6.787 4.391 13.174 5.389 18.963 2.595 15.37-0.399 29.742-8.583 40.321-7.785 10.18-19.761 16.368-33.535 17.566-13.174 1.198-32.137-3.393-48.106-30.74-1.397-2.395-2.595-4.591-3.393-6.188-2.395 5.988-5.789 14.172-13.573 19.362-5.988 4.192-9.981 5.988-13.773 6.986-9.382 6.587-15.969 7.785-22.556 8.384-2.994 0.399-4.192 0.399-7.386 2.196-5.988 3.393-12.376 4.791-18.364 4.192l-13.773 10.779-6.188 11.777c-3.793 7.386-12.775 10.779-20.56 7.585-3.593-1.397-6.388-3.992-8.184-6.986-1.198-2.196-1.996-4.591-2.196-7.186-3.992-1.198-7.186-3.992-9.382-7.386-0.998-1.796-1.796-3.992-1.996-6.188-0.998-8.184 4.192-15.969 12.376-17.965l12.975-3.194 14.572-11.378c0.998-5.589 3.793-10.979 8.384-15.57 2.395-2.395 2.795-3.393 3.793-6.388 2.196-6.188 4.791-12.376 13.374-19.961 1.796-3.393 4.391-6.986 9.781-11.777 6.787-5.988 15.17-7.186 21.159-7.984 0.798-0.2 1.597-0.2 2.595-0.399 16.967-17.366 33.335-19.761 44.313-18.564 3.393 0.399 6.587 0.998 9.781 2.196-0.599-5.589-0.798-11.178-0.2-16.168 2.795-29.942 24.951-58.087 55.092-69.664 32.137-12.376 66.271-4.99 93.817 20.36 10.979 10.18 20.759 22.556 29.542 38.126 18.564 32.137 30.341 71.46 41.519 109.386 9.981 33.535 19.362 65.073 32.337 87.629 0.798 1.397 1.597 2.795 2.395 3.992 19.362 30.54 41.319 39.722 65.273 26.947 8.783-4.591 14.971-10.779 19.562-16.767-24.552-4.791-55.092-18.364-73.057-49.304-3.593-6.188-6.388-12.775-8.583-19.562-15.17-47.507 9.781-74.455 25.151-81.84 6.787-3.393 14.971-1.597 19.961 4.192 0.599 0.798 1.198 1.397 1.597 2.196 3.194 5.589 2.994 12.775-1.198 17.965-8.982 11.977-8.783 31.339 0.998 47.906 3.992 6.787 17.965 26.748 46.11 26.149-1.597-11.577-4.99-22.356-7.585-30.74-0.399-1.397-0.798-2.795-1.198-3.992-0.2-0.599-0.399-1.397-0.798-2.395-12.575-39.523-13.773-71.86-3.793-96.412-17.366-10.18-32.736-25.75-44.912-45.91-14.372-23.754-23.554-52.697-25.75-81.441-0.399-4.99-0.399-9.182-0.2-13.174-55.292-42.517-63.476-100.005-52.098-140.725 13.573-48.705 54.893-82.040 104.995-85.034 4.391-0.2 8.783-0.399 13.174-0.399 41.519 0 83.637 10.579 124.357 20.759 34.732 8.783 67.468 16.967 97.011 17.965 1.796 0 3.393 0 5.19 0 18.364 0 29.942-2.595 36.728-8.783 3.194-2.795 6.188-7.386 5.589-15.17-0.798-10.38-12.376-14.771-36.329-19.761-6.986-1.397-13.573-2.795-19.163-4.99-14.572-5.389-25.55-15.17-30.54-27.546-4.791-11.777-4.192-25.151 1.597-37.726 5.589-11.977 18.963-26.349 50.701-26.349 2.795 0 5.19 0.2 7.186 0.2-3.992-5.19-9.182-12.176-10.18-21.358-0.599-7.186-0.2-11.777 0.798-15.37-0.998-11.378 1.397-17.765 3.992-23.754 1.198-2.795 1.796-3.793 1.796-7.386 0-6.787 1.996-12.975 5.589-17.965l-2.595-17.366-7.186-11.178c-4.591-7.186-2.994-16.568 3.593-21.758 2.994-2.395 6.587-3.593 10.18-3.593 2.595 0 4.99 0.599 7.186 1.597 2.994-2.795 6.986-4.391 11.178-4.391 2.196 0 4.192 0.399 6.388 1.198 7.585 3.194 11.777 11.777 9.382 19.761l-3.793 12.775 2.595 18.364c4.391 3.593 7.585 8.783 9.382 14.971 0.998 3.393 1.597 4.192 3.593 6.388 4.391 4.99 8.384 10.38 10.779 21.558 1.996 3.194 3.793 7.386 5.19 14.372 1.796 8.982-1.397 16.568-3.593 22.356-0.2 0.599-0.599 1.597-0.998 2.395 6.587 23.354 0.399 38.924-6.188 47.707-1.996 2.795-4.192 5.19-6.787 7.386 5.19 2.395 9.981 4.99 14.172 7.785 24.552 17.366 37.726 50.701 32.736 82.639-5.389 33.934-28.943 59.883-64.674 71.061-14.172 4.391-29.942 6.587-47.707 6.587-37.127 0-77.050-9.581-115.574-18.763-33.934-8.184-66.071-15.769-92.020-15.769-1.597 0-3.194 0-4.791 0-36.129 1.397-55.092 15.969-56.090 43.116-0.399 9.981 1.796 18.364 4.791 25.35 16.568-18.963 43.515-38.525 79.245-38.525 6.986 0 14.172 0.798 21.358 2.395 48.705 10.779 59.484 45.711 58.286 62.678-0.599 7.585-6.188 13.773-13.573 15.17-0.998 0.2-1.796 0.2-2.795 0.2-6.388 0-12.575-3.793-15.17-9.981-5.988-13.773-22.756-23.155-41.918-23.155-7.984 0-32.137 2.196-45.711 26.748 10.979 4.391 21.758 6.787 30.341 8.783 1.397 0.399 2.795 0.599 3.992 0.998 0.599 0.2 1.397 0.399 2.395 0.599 40.521 8.783 69.065 23.953 85.433 44.912 17.566-9.981 38.724-15.37 62.079-15.969 27.945-0.599 57.488 5.988 83.437 18.564 4.391 2.196 8.184 4.192 11.577 6.388 64.474-26.748 118.369-5.19 147.911 25.151 35.331 36.129 43.715 88.627 21.159 133.539-1.996 3.793-3.992 7.785-6.188 11.577-20.759 35.93-50.901 67.069-80.243 97.41-24.951 25.75-48.306 49.903-64.075 75.053-0.998 1.397-1.796 2.994-2.595 4.391-9.182 15.969-12.775 27.347-10.779 36.129 0.998 4.192 3.393 9.182 10.38 12.376 9.382 4.591 18.963-3.393 35.131-21.558 4.791-5.389 9.182-10.38 13.773-14.172 11.977-9.981 25.949-14.572 39.124-12.775 12.575 1.796 23.953 8.982 31.938 20.36 7.585 10.779 13.174 29.542-2.595 56.889-1.397 2.395-2.595 4.391-3.793 5.988 6.388-0.798 15.17-1.996 23.554 1.996 6.587 2.994 10.18 5.589 12.975 8.384 10.38 4.791 14.771 9.981 18.564 15.37 1.796 2.395 2.395 3.393 5.589 5.19 5.988 3.393 10.18 8.384 12.775 13.773l16.368 6.587 13.174-0.599c8.384-0.399 15.769 5.589 16.967 13.973 1.796 5.19 0.998 8.783-0.798 11.977zM568.689 618.892c7.386-11.378 12.575-23.354 15.57-36.329 3.593-15.37 1.796-26.947-0.599-32.337-3.593-7.984-14.172-7.984-18.165 9.781-3.393 15.37 1.597 45.511 3.194 58.885zM547.531 445.63c-11.777-10.779-40.321-21.558-52.697-26.748 6.188 11.977 13.973 22.556 23.754 31.538 11.378 10.779 22.356 15.17 28.345 15.769 8.583 0.798 13.773-8.384 0.599-20.56zM665.7 459.603c-14.971 4.591-24.153 11.777-27.746 16.568-5.19 6.986 0.2 16.168 17.366 10.779 15.17-4.791 38.924-24.153 49.503-32.137-13.374-0.599-26.349 0.798-39.124 4.791z" />
<glyph unicode="&#xe94b;" d="M1003.041 905.132l-14.971 3.593 7.984 13.573-11.577-12.176-28.145-11.378c-2.196 2.595-5.988 4.591-11.977 2.994-14.971-3.793-15.57 4.192-32.337-1.996-3.393-1.198-2.196 1.597-13.174-1.996-7.585-2.395-11.777-14.771-17.765-15.969-38.325-8.384-37.527-38.724-23.155-59.085 3.992-5.589 5.988-9.182 3.992-11.378-1.397-1.597-4.791-2.994-9.182 3.593-8.384 12.975-25.949 30.54-40.321 37.127-43.515 19.961-109.786-16.967-94.216-86.032 17.166-76.65 119.566-144.518 152.502-207.395 24.352-46.31 9.781-75.852-14.971-91.621-20.161-12.575-42.118-13.174-57.887-9.382 13.374 20.56 28.943 70.662-5.988 108.788-32.936 36.129-62.278 16.568-62.278 16.568 47.108 5.789 95.214-63.875 46.11-116.173-18.564 10.979-32.337 26.748-41.12 35.93-7.186 7.585-45.91 53.895-89.026 48.505 8.184 46.31-23.554 98.009-66.47 127.351-6.188 4.192-10.979 6.787-17.366 9.581-9.581 120.365-140.526 148.31-192.823 68.865-42.517-64.873-50.102-158.69-83.237-221.168-15.57-29.542-40.321-54.094-68.067-35.131-26.748 18.165-3.992 56.689-0.399 76.65 3.793 22.157-8.384 37.127-27.347 38.724-21.758 1.796-33.135-23.754-36.928-30.94-8.384-15.769-20.161-8.583-24.352-3.992-3.793 4.192-5.389 15.769-11.777 20.36-9.382 6.587-8.982 3.393-11.977 5.589-14.172 10.779-16.967 3.393-30.341 11.178-5.19 2.994-10.18 2.595-13.374 0l-23.554 18.564-7.785 14.971 4.192-14.771-15.57 0.2 16.368-3.992 23.754-18.763c-1.198-3.194-0.998-7.386 3.393-11.977 10.779-11.178 4.192-15.57 17.765-26.947 2.795-2.395-0.2-2.795 8.184-10.38 5.988-5.19 18.564-2.795 22.756-7.386 26.548-28.943 52.298-13.174 62.678 9.581 2.795 6.188 4.99 9.781 7.984 9.182 2.196-0.399 4.99-2.595 1.397-9.781-6.986-13.773-13.374-37.726-11.977-53.496 4.391-47.507 69.464-86.431 121.563-38.724 57.887 53.096 65.472 175.857 103.198 235.74 27.945 44.114 60.881 46.509 86.83 32.736 20.959-11.178 32.536-29.942 37.127-45.511-24.352 1.397-75.652-10.38-91.222-59.683-14.771-46.709 16.767-62.278 16.767-62.278-28.544 37.926 7.785 114.377 77.648 98.009-0.2-21.558-6.986-41.519-10.579-53.496-2.994-9.981-23.754-66.67 2.595-101.202-44.313-15.969-73.257-69.464-77.050-121.363-0.599-7.386-0.2-12.975 0.399-19.761-99.406-68.466-58.286-195.818 36.728-201.407 77.449-4.591 162.483 35.93 233.145 38.525 33.535 1.198 66.869-7.984 64.474-41.319-2.395-32.137-47.108-31.738-66.071-38.724-21.159-7.785-27.945-25.75-19.761-43.116 9.182-19.761 37.127-16.767 45.112-16.568 17.965 0.798 17.566-13.174 15.57-18.963-1.796-5.389-10.979-12.575-11.577-20.36-0.998-11.378 1.597-9.581 1.198-13.174-2.196-17.765 5.389-16.368 5.589-31.938 0-5.988 2.795-10.18 6.787-11.378l-4.192-29.742-8.982-14.172 10.579 10.979 7.785-13.573-4.791 16.168 4.391 29.942c3.393 0.599 6.986 2.795 8.583 8.982 4.192 14.971 11.378 11.378 14.372 28.943 0.599 3.593 2.595 1.198 4.791 12.376 1.597 7.785-6.787 17.566-4.99 23.354 11.777 37.527-14.771 51.899-39.722 49.503-6.787-0.599-10.979-0.599-11.977 2.196-0.599 1.996-0.2 5.789 7.585 6.188 15.57 0.798 39.323 7.186 52.298 16.368 38.924 27.746 40.122 103.398-27.347 124.756-75.053 23.554-185.039-31.339-255.9-28.544-52.298 1.996-70.662 29.542-71.66 58.885-0.798 23.754 9.581 43.116 20.959 54.893 10.979-21.957 46.709-60.282 97.21-49.304 47.906 10.579 45.511 45.711 45.511 45.711-18.564-43.715-102.999-50.501-123.758 18.165 18.763 10.579 39.323 14.771 51.699 17.566 10.18 2.395 69.664 12.775 86.431 52.897 35.93-30.341 96.611-28.744 143.52-5.988 6.587 3.194 11.378 6.188 16.967 10.38 108.987-51.899 198.812 47.507 156.095 132.541-34.732 69.265-112.381 122.76-149.907 182.643-17.765 28.345-26.548 61.879 3.593 76.451 29.143 13.973 51.1-24.951 66.67-37.926 17.366-14.372 36.329-11.178 47.108 4.391 12.376 17.965-3.992 40.521-8.184 47.308-9.581 15.17 2.595 21.758 8.583 22.955 5.589 1.198 16.368-3.194 23.554 0.2 10.38 4.791 7.585 6.188 10.779 7.585 16.368 6.986 11.378 12.975 24.752 20.759 5.19 2.994 7.386 7.585 6.587 11.577l27.945 11.178 16.967-0.798zM558.31 655.819c21.758-18.165 36.129-45.112 41.719-69.664 4.391-18.963 1.198-35.93-4.591-45.711-10.38-18.165-38.724-20.161-46.31 16.767-5.589 28.744 6.388 76.251 9.182 98.607zM557.91 432.855c-21.957-19.362-69.065-32.736-89.825-41.519 4.791 27.746 20.959 53.895 39.323 71.061 14.172 13.374 30.341 18.963 41.918 18.963 20.959 0.2 36.728-23.554 8.583-48.505zM661.109 443.833c-18.564 5.589-31.738 16.967-37.327 26.748-10.579 18.165 1.996 43.715 37.726 31.738 27.746-9.182 62.877-43.315 80.842-57.088-26.748-9.581-57.488-8.583-81.241-1.397z" />
<glyph unicode="&#xe94c;" glyph-name="info" d="M469.333 640h85.333v-85.333h-85.333zM469.333 469.334h85.333v-256h-85.333zM512 853.334c-235.52 0-426.667-191.147-426.667-426.667s191.147-426.667 426.667-426.667 426.667 191.147 426.667 426.667-191.147 426.667-426.667 426.667zM512 85.334c-188.16 0-341.333 153.173-341.333 341.333s153.173 341.333 341.333 341.333 341.333-153.173 341.333-341.333-153.173-341.333-341.333-341.333z" />
<glyph unicode="&#xe94d;" glyph-name="youtube" d="M1002.622 657.495c-12.071 43.252-45.869 77.049-89.12 89.12-79.816 21.384-401.042 21.384-401.042 21.384s-320.415 0.426-401.042-21.384c-43.252-12.071-77.049-45.869-89.12-89.12-15.13-81.715-22.589-164.666-22.289-247.77-0.241-82.79 7.218-165.424 22.289-246.831 12.071-43.252 45.869-77.049 89.12-89.12 79.73-21.426 401.042-21.426 401.042-21.426s320.372 0 401.042 21.426c43.252 12.071 77.049 45.869 89.12 89.12 14.757 81.437 21.901 164.070 21.341 246.831 0.619 83.074-6.526 166.025-21.341 247.77v0zM409.937 256.453v307.013l267.361-153.741-267.361-153.272z" />
<glyph unicode="&#xe94e;" glyph-name="play" d="M341.333 647.68v-442.027c0-33.707 37.12-54.187 65.707-35.84l347.307 221.013c26.453 16.64 26.453 55.040 0 72.107l-347.307 220.587c-28.587 18.347-65.707-2.133-65.707-35.84z" />
<glyph unicode="&#xe94f;" glyph-name="playstation" d="M1014.893 205.773c-20.003-25.236-69.009-43.238-69.009-43.238s-364.56-130.948-364.56-130.948c0 0 0 96.571 0 96.571s268.291 95.594 268.291 95.594c30.446 10.908 35.121 26.329 10.373 34.423-24.701 8.117-69.428 5.791-99.897-5.163 0 0-178.768-62.962-178.768-62.962s0 100.223 0 100.223c0 0 10.304 3.489 10.304 3.489s51.658 18.281 124.296 26.329c72.638 8.001 161.579-1.093 231.403-27.562 78.685-24.864 87.546-61.52 67.567-86.756zM616.027 370.213c0 0 0 246.963 0 246.963 0 29.004-5.35 55.705-32.562 63.264-20.84 6.675-33.772-12.676-33.772-41.657 0 0 0-618.454 0-618.454s-166.79 52.937-166.79 52.937c0 0 0 737.4 0 737.4 70.916-13.165 174.232-44.285 229.775-63.008 141.251-48.495 189.141-108.852 189.141-244.846 0-132.552-81.825-182.792-185.792-132.599v0zM76.862 138.252c-80.778 22.747-94.222 70.149-57.403 97.455 34.028 25.213 91.896 44.192 91.896 44.192s239.148 85.035 239.148 85.035c0 0 0-96.943 0-96.943s-172.093-61.59-172.093-61.59c-30.399-10.908-35.074-26.352-10.373-34.446 24.724-8.094 69.474-5.791 99.92 5.14 0 0 82.546 29.957 82.546 29.957s0-86.732 0-86.732c-5.233-0.93-11.071-1.861-16.467-2.768-82.569-13.49-170.511-7.862-257.174 20.7v0z" />
<glyph unicode="&#xe950;" glyph-name="pc" d="M0 794.353l415.267 56.555 0.182-400.559-415.069-2.364-0.379 346.367zM415.069 404.197l0.322-400.908-415.069 57.066-0.023 346.531 414.77-2.689zM465.409 858.306l550.609 80.361v-483.223l-550.609-4.371v407.234zM1016.147 400.427l-0.129-481.047-550.609 77.712-0.771 404.236 551.51-0.901z" />
<glyph unicode="&#xe951;" glyph-name="switch" d="M375.615 938.611c128.285 0.212 132.007 0 134.196-3.818 1.532-2.969 2.189-165.001 2.189-509.002 0-451.987-0.208-502.56-3.253-507.822l-0.25-0.331c-3.284-3.181-15.981-3.393-138.574-2.545-118.434 0.636-136.823 1.273-151.272 4.454-110.772 25.026-188.706 100.74-213.006 206.994-4.378 19.724-4.597 25.662-5.254 281.011-1.034 262.595-0.505 295.912 7.671 328.998l1.524 5.883c26.708 99.255 111.429 174.757 216.728 192.996 13.792 2.333 45.097 2.969 149.301 3.181zM713.531 938.647c57.699-0.126 77.606-0.87 90.979-3.16 110.805-19.082 195.077-102.404 216.091-212.865 2.547-13.266 3.224-41.798 3.366-202.821l-0.003-223.442c-0.22-164.035-1.715-169.425-11.58-198.623l-1.335-3.958c-3.609-10.389-10.614-27.138-15.92-37.103-41.393-77.81-117.386-130.179-203.567-139.931-20.378-2.12-185.1-2.968-190.831-0.848-2.598 1.038-3.217 32.412-3.357 294.987v334.106c0.151 223.742 0.721 391.652 1.447 392.196 0.566 0.754 34.173 1.34 77.414 1.461zM424.433 856.11l-84.721-0.212c-93.696-0.212-107.050-1.485-135.947-12.725-57.575-22.269-100.264-71.684-113.399-131.28-4.597-20.996-4.597-548.661 0.219-570.082 14.667-68.503 66.989-121.1 137.48-138.703 16.419-4.030 25.175-4.454 107.269-5.302v0l89.099-1.060v859.364zM825.524 475.409c-53.068 13.781-108.258-16.749-124.178-68.694-5.307-16.537-5.519-43.676-0.849-59.789 15.496-52.58 71.96-84.595 125.027-70.814 32.69 8.693 58.162 32.227 71.111 65.725 7.005 18.233 7.217 47.492 0.212 67.422-11.038 32.227-38.209 57.457-71.323 66.149zM255.479 723.298c59.401 11.765 116.917-28.706 127.053-89.177 8.722-50.824-22.158-100.471-73.309-117.647-12.493-4.235-19.093-4.941-37.715-4.235-20.508 0.706-24.515 1.647-40.308 9.412-22.865 11.294-39.601 28-50.68 50.824-7.543 15.059-8.722 20-9.665 38.588-1.886 35.765 10.372 66.118 35.122 87.529 12.022 10.588 34.651 21.882 49.501 24.706z" />
<glyph unicode="&#xe952;" glyph-name="xbox" d="M460.943-83.23c-78.883 7.553-158.743 35.863-227.343 80.6-57.484 37.469-70.457 52.897-70.457 83.645 0 61.77 67.958 169.978 184.236 293.305 66.018 70.061 157.993 152.136 167.931 149.924 19.352-4.318 173.953-155.038 231.842-226.004 91.523-112.169 133.583-204.046 112.208-245-16.246-31.129-117.075-91.983-191.139-115.357-61.055-19.27-141.235-27.43-207.277-21.113v0zM85.497 145.236c-47.773 73.249-71.909 145.356-83.549 249.651-3.856 34.436-2.499 54.122 8.724 124.825 13.96 88.022 64.149 189.962 124.49 252.648 25.684 26.645 27.969 27.358 59.293 16.772 37.966-12.847 78.55-40.871 141.509-97.776l36.776-33.234-20.114-24.622c-93.165-114.31-191.496-276.438-228.509-376.712-20.114-54.479-28.207-109.195-19.519-131.974 5.832-15.392 0.476-9.659-19.161 20.388l0.060 0.036zM923.995 132.782c4.725 23.029-1.25 65.303-15.234 107.958-30.289 92.364-131.56 264.186-224.546 381.018l-29.278 36.779 31.682 29.059c41.346 37.945 70.052 60.664 101.044 79.97 24.434 15.226 59.365 28.702 74.385 28.702 9.247 0 41.846-33.901 68.148-70.775 40.751-57.096 70.719-126.443 85.905-198.526 9.819-46.628 10.64-146.308 1.583-192.817-7.498-38.159-23.208-87.618-38.442-121.174-11.544-25.134-39.989-73.963-52.486-89.854-6.427-8.172-6.427-8.16-2.856 9.468l0.095 0.19zM469.393 813.707c-42.917 21.768-109.113 45.141-145.675 51.446-12.806 2.201-34.669 3.45-48.558 2.736-30.182-1.523-28.837 0.048 19.554 22.898 40.227 18.996 73.789 30.166 119.372 39.729 51.236 10.765 147.579 10.884 198.006 0.262 54.45-11.479 118.587-35.328 154.72-57.571l10.759-6.59-24.636 1.237c-48.987 2.474-120.372-17.307-197.018-54.562-23.113-11.253-43.203-20.221-44.678-19.983-1.464 0.285-20.304 9.456-41.893 20.4h0.048z" />
<glyph unicode="&#xe953;" glyph-name="first-page" d="M755.2 260.694l-165.547 165.973 165.973 165.973c16.64 16.64 16.64 43.52 0 60.16s-43.52 16.64-60.16 0l-195.84-195.84c-16.64-16.64-16.64-43.52 0-60.16l195.84-195.84c16.64-16.64 43.52-16.64 60.16 0 16.213 16.213 16.213 43.52-0.427 59.733zM298.667 682.667c23.467 0 42.667-19.2 42.667-42.667v-426.667c0-23.467-19.2-42.667-42.667-42.667s-42.667 19.2-42.667 42.667v426.667c0 23.467 19.2 42.667 42.667 42.667z" />
<glyph unicode="&#xe954;" glyph-name="last-page" d="M268.373 592.64l165.973-165.973-165.973-165.973c-16.64-16.64-16.64-43.52 0-60.16s43.52-16.64 60.16 0l195.84 195.84c16.64 16.64 16.64 43.52 0 60.16l-195.84 196.267c-16.64 16.64-43.52 16.64-60.16 0-16.213-16.64-16.213-43.947 0-60.16zM725.333 682.667c23.467 0 42.667-19.2 42.667-42.667v-426.667c0-23.467-19.2-42.667-42.667-42.667s-42.667 19.2-42.667 42.667v426.667c0 23.467 19.2 42.667 42.667 42.667z" />
<glyph unicode="&#xe955;" glyph-name="upload" d="M760.942 149.28c27.378 0 49.778-19.2 49.778-42.667s-22.4-42.667-49.778-42.667h-497.778c-27.378 0-49.778 19.2-49.778 42.667s22.4 42.667 49.778 42.667h497.778zM482.133 798.187c16.64 16.64 43.52 16.64 60.16 0v0l238.507-238.507c16.64-16.64 16.64-43.52 0-60.16s-43.947-16.64-60.587 0v0l-165.547 165.547v-391.253c0-23.467-19.2-42.667-42.667-42.667s-42.667 19.2-42.667 42.667v0 391.253l-165.973-165.12c-16.64-16.64-43.52-16.64-60.16 0s-16.64 43.52 0 60.16v0z" />
<glyph unicode="&#xe956;" d="M748.8 460.8c-9.813 12.8-21.333 23.893-32.427 34.987-27.733 25.6-59.733 43.947-86.613 70.827-62.293 62.293-75.093 165.12-36.267 244.053-38.827-9.813-74.667-32-104.533-56.32-108.373-88.747-151.040-245.333-99.84-379.733 1.707-4.267 3.413-8.533 3.413-14.080 0-9.387-6.4-17.92-14.933-21.333-9.387-4.267-19.627-1.707-27.307 5.12-2.56 2.133-4.267 4.267-6.4 7.253-46.933 61.013-54.613 148.48-22.613 218.453-69.973-58.027-107.947-156.16-101.973-248.747 1.707-21.333 4.267-42.667 11.52-64 5.973-25.6 17.067-51.2 30.72-73.813 44.373-73.813 122.453-126.72 206.507-137.387 89.6-11.52 185.6 5.12 254.293 68.267 76.8 70.827 104.533 184.32 64 281.6l-5.547 11.093c-8.533 19.627-20.053 37.12-34.133 53.333l2.133 0.427z" />
<glyph unicode="&#xe957;" d="M616.533 192c-11.947-10.24-31.147-21.333-46.080-25.6-46.933-17.067-93.867 6.827-122.453 34.987 50.773 11.947 80.64 49.493 89.173 87.467 7.253 34.133-5.973 62.293-11.52 95.147-5.12 31.573-4.267 58.453 7.68 87.893 7.253-16.213 15.787-32.427 25.6-45.227 32.427-42.667 83.2-61.44 93.867-119.467 1.707-5.973 2.56-11.947 2.56-18.347 1.28-34.987-13.653-73.387-39.253-96.853h0.427z" />
<glyph unicode="&#xe958;" glyph-name="outlined" d="M593.493 810.667c-38.827-78.933-26.027-181.76 36.267-244.053 26.88-26.88 58.88-45.227 86.613-70.827 8.32-8.32 16.88-16.64 24.78-25.68l7.647-9.307-2.133-0.427c11.264-12.971 20.89-26.761 28.658-41.807l5.475-11.527 5.547-11.093c40.533-97.28 12.8-210.773-64-281.6-68.693-63.147-164.693-79.787-254.293-68.267-84.053 10.667-162.133 63.573-206.507 137.387-13.653 22.613-24.747 48.213-30.72 73.813-7.253 21.333-9.813 42.667-11.52 64-5.973 92.587 32 190.72 101.973 248.747-30.545-66.793-24.936-149.525 16.457-209.973l6.157-8.48c2.133-2.987 3.84-5.12 6.4-7.253 7.68-6.827 17.92-9.387 27.307-5.12 8.533 3.413 14.933 11.947 14.933 21.333 0 5.547-1.707 9.813-3.413 14.080-51.2 134.4-8.533 290.987 99.84 379.733 29.867 24.32 65.707 46.507 104.533 56.32zM508.843 685.824l-3.275-3.352c-69.662-74.012-93.792-187.556-57.025-284.090 5.412-13.53 7.991-22.771 7.991-37.849 0-36.003-22.687-67.765-52.45-79.597-33.346-15.157-70.259-7.607-94.762 14.217-5.427 4.523-9.547 8.852-12.958 13.131l-3.198 4.267c-2.348 3.053-4.623 6.155-6.824 9.303l-3.248 4.929c1.529-19.388 3.418-32.234 6.615-43.424l1.712-5.478 1.732-6.059c4.183-17.925 12.338-37.316 23.246-55.382 34.759-57.821 96.027-98.788 159.817-106.884 81.141-10.432 154.294 7.299 202.744 51.837 55.826 51.484 76.292 132.071 51.63 201.34l-2.823 7.271-5.658 11.516c-4.472 10.286-10.334 20.051-17.831 29.683l-5.932 7.205-29.801 34.284-1.958 1.743c-3.308 2.835-6.924 5.77-11.43 9.286l-32.864 24.973c-16.236 12.517-26.158 21.036-37.786 32.663-41.854 41.854-67.083 97.295-74.641 155.498l-1.021 8.967zM533.333 471.894c7.253-15.324 15.787-30.648 25.6-42.747 32.427-40.327 83.2-58.071 93.867-112.915 1.707-5.646 2.56-11.292 2.56-17.341 1.28-33.068-13.653-69.362-39.253-91.542h0.427c-11.947-9.678-31.147-20.163-46.080-24.196-46.933-16.131-93.867 6.452-122.453 33.068 50.773 11.292 80.64 46.779 89.173 82.67 7.253 32.262-5.973 58.877-11.52 89.929-5.12 29.842-4.267 55.248 7.68 83.073z" />
<glyph unicode="&#xe959;" glyph-name="comment" d="M341.333 42.667v128h-170.667c-47.128 0-85.333 38.205-85.333 85.333v512c0 47.36 38.4 85.333 85.333 85.333h682.667c47.128 0 85.333-38.205 85.333-85.333v-512c0-47.128-38.205-85.333-85.333-85.333h-260.267l-157.867-158.293c-8.533-8.107-19.2-12.373-29.867-12.373h-21.333c-23.564 0-42.667 19.103-42.667 42.667zM426.667 124.587l131.413 131.413h252.587c23.564 0 42.667 19.103 42.667 42.667v426.667c0 23.564-19.103 42.667-42.667 42.667h-597.333c-23.564 0-42.667-19.103-42.667-42.667v-426.667c0-23.564 19.103-42.667 42.667-42.667h213.333v-131.413zM768 597.334c0-23.564-19.103-42.667-42.667-42.667h-426.667c-23.564 0-42.667 19.103-42.667 42.667s19.103 42.667 42.667 42.667h426.667c23.564 0 42.667-19.103 42.667-42.667zM298.667 469.334h298.667c23.564 0 42.667-19.103 42.667-42.667s-19.103-42.667-42.667-42.667h-298.667c-23.564 0-42.667 19.103-42.667 42.667s19.103 42.667 42.667 42.667z" />
<glyph unicode="&#xe95a;" glyph-name="help" d="M512 853.334c-235.52 0-426.667-191.147-426.667-426.667s191.147-426.667 426.667-426.667 426.667 191.147 426.667 426.667-191.147 426.667-426.667 426.667zM512 85.334c-188.16 0-341.333 153.173-341.333 341.333s153.173 341.333 341.333 341.333 341.333-153.173 341.333-341.333-153.173-341.333-341.333-341.333zM469.333 256h85.333v-85.333h-85.333zM538.027 680.96c-87.893 12.8-165.547-41.387-189.013-119.040-7.68-24.747 11.093-49.92 37.12-49.92h8.533c17.493 0 31.573 12.373 37.547 28.587 13.653 37.973 54.187 64 98.133 54.613 40.533-8.533 70.4-48.213 66.987-89.6-4.267-57.173-69.12-69.547-104.533-122.88 0-0.427-0.427-0.427-0.427-0.853-0.427-0.853-0.853-1.28-1.28-2.133-3.84-6.4-7.68-13.653-10.667-21.333-0.427-1.28-1.28-2.133-1.707-3.413-0.427-0.853-0.427-1.707-0.853-2.987-5.12-14.507-8.533-32-8.533-53.333h85.333c0 17.92 4.693 32.853 11.947 45.653 0.853 1.28 1.28 2.56 2.133 3.84 3.413 5.973 7.68 11.52 11.947 16.64 0.427 0.427 0.853 1.28 1.28 1.707 4.267 5.12 8.96 9.813 14.080 14.507 40.96 38.827 96.427 70.4 84.907 151.893-10.24 74.24-68.693 136.96-142.933 148.053z" />
<glyph unicode="&#xe95b;" glyph-name="discord" d="M855.040 938.667c57.856 0 104.96-47.104 104.96-105.472v0-918.528l-110.080 97.28-61.952 57.344-65.536 60.928 27.136-94.72h-580.608c-57.856 0-104.96 47.104-104.96 105.472v0 692.224c0 58.368 47.104 105.472 104.96 105.472v0zM433.664 700.079c0 0-70.144 1.532-143.872-53.764 0 0-73.728-133.632-73.728-298.496 0 0 43.008-74.24 156.16-77.824 0 0 18.944 23.040 34.304 42.496-65.024 19.456-89.6 60.416-89.6 60.416s5.12-3.584 14.336-8.704c0.512-0.512 1.024-1.024 2.048-1.536 1.536-1.024 3.072-1.536 4.608-2.56 12.8-7.168 25.6-12.8 37.376-17.408 20.992-8.192 46.080-16.384 75.264-22.016 38.4-7.168 83.456-9.728 132.608-0.512 24.064 4.096 48.64 11.264 74.24 22.016 17.92 6.656 37.888 16.384 58.88 30.208 0 0-25.6-41.984-92.672-60.928 15.36-19.456 33.792-41.472 33.792-41.472 113.152 3.584 156.672 77.824 156.672 77.824 0 164.864-73.728 298.496-73.728 298.496-68.462 51.346-133.833 53.693-142.823 53.766l-1.049-0.002-7.168-8.196c87.040-26.624 127.488-65.024 127.488-65.024-53.248 29.184-105.472 43.52-154.112 49.152-36.864 4.096-72.192 3.072-103.424-1.024-3.072 0-5.632-0.512-8.704-1.024-17.92-1.536-61.44-8.192-116.224-32.256-18.944-8.704-30.208-14.848-30.208-14.848s42.496 40.448 134.656 67.072v0zM419.328 509.099c29.184 0 52.736-25.6 52.224-56.832 0-31.232-23.040-56.832-52.224-56.832-28.672 0-52.224 25.6-52.224 56.832s23.040 56.832 52.224 56.832zM606.208 509.099c29.184 0 52.224-25.6 52.224-56.832s-23.040-56.832-52.224-56.832c-28.672 0-52.224 25.6-52.224 56.832s23.040 56.832 52.224 56.832z" />
<glyph unicode="&#xe95c;" glyph-name="shout" d="M662.644 202.466l3.921-3.545 91.733-92.587c16.213-16.213 16.213-43.093 0-59.307-16.213-16.64-43.093-16.64-59.307 0-26.88 26.88-65.707 65.28-92.587 91.733-15.36 15.36-16.542 39.082-3.545 55.728l3.545 4.005 0.853 0.427c14.966 15.36 39.021 16.542 55.385 3.545zM414.299 680.937c26.88 26.88 72.96 7.68 72.96-30.293v0-476.587c0-37.973-46.080-57.173-72.96-30.293v0l-140.373 140.373h-128c-23.467 0-42.667 19.2-42.667 42.667v0 170.667c0 23.467 19.2 42.667 42.667 42.667v0h128zM867.952 450.228c21.394 0 39.11-16.187 41.531-37.288l0.282-4.952v-1.28c0-21.394-16.187-39.11-36.947-41.531l-4.867-0.282h-129.707c-21.394 0-39.11 16.187-41.531 37.288l-0.282 4.952v1.28c0 21.394 16.187 39.11 37.288 41.531l4.952 0.282h129.28zM754.294 771.64l4.005-3.545 0.427-0.853c15.36-14.966 16.542-39.021 3.545-55.385l-3.545-3.921-92.587-91.733c-16.213-16.213-43.093-16.213-59.307 0-16.64 16.64-16.64 43.52 0 59.733 26.88 26.453 65.707 65.28 92.16 92.16 14.966 15.36 38.658 16.542 55.302 3.545z" />
<glyph unicode="&#xe95d;" glyph-name="shouted" d="M723.375 268.235l4.897-1.99 117.868-55.628c20.781-9.69 29.974-34.949 20.284-55.73-9.544-21.182-34.803-30.375-55.73-20.284-34.452 16.065-84.071 38.87-118.378 54.535-19.687 9.18-28.911 31.067-22.391 51.155l1.961 4.976 0.656 0.693c8.81 19.552 31.010 28.89 50.833 22.274zM326.36 632.912c16.065 34.452 65.933 32.171 78.921-3.513v0l163.002-447.845c12.988-35.683-23.747-69.486-58.199-53.42v0l-179.918 83.897-120.281-43.779c-22.051-8.026-46.66 3.449-54.686 25.501v0l-58.371 160.374c-8.026 22.051 3.449 46.66 25.501 54.686v0l120.281 43.779zM831.562 571.275c20.104 7.317 42.287-1.835 51.78-20.835l1.959-4.557 0.438-1.203c7.317-20.104-1.835-42.287-20.514-51.663l-4.477-1.93-121.884-44.362c-20.104-7.317-42.287 1.835-51.78 20.835l-1.959 4.557-0.438 1.203c-7.317 20.104 1.835 42.287 20.835 51.78l4.557 1.959 121.483 44.216zM614.829 834.429l4.976-1.961 0.693-0.656c19.552-8.81 28.89-31.010 22.274-50.833l-1.99-4.897-55.628-117.868c-9.69-20.781-34.949-29.974-55.73-20.284-21.328 9.945-30.521 35.204-20.43 56.131 16.211 34.052 39.417 83.816 55.081 118.123 8.81 19.552 30.669 28.766 50.754 22.245z" />
<glyph unicode="&#xe95e;" glyph-name="handle" d="M469.333 170.667c0-46.933-38.4-85.333-85.333-85.333s-85.333 38.4-85.333 85.333 38.4 85.333 85.333 85.333 85.333-38.4 85.333-85.333zM384 512c-46.933 0-85.333-38.4-85.333-85.333s38.4-85.333 85.333-85.333 85.333 38.4 85.333 85.333-38.4 85.333-85.333 85.333zM384 768c-46.933 0-85.333-38.4-85.333-85.333s38.4-85.333 85.333-85.333 85.333 38.4 85.333 85.333-38.4 85.333-85.333 85.333zM640 597.334c46.933 0 85.333 38.4 85.333 85.333s-38.4 85.333-85.333 85.333-85.333-38.4-85.333-85.333 38.4-85.333 85.333-85.333zM640 512c-46.933 0-85.333-38.4-85.333-85.333s38.4-85.333 85.333-85.333 85.333 38.4 85.333 85.333-38.4 85.333-85.333 85.333zM640 256c-46.933 0-85.333-38.4-85.333-85.333s38.4-85.333 85.333-85.333 85.333 38.4 85.333 85.333-38.4 85.333-85.333 85.333z" />
</font>
</defs>
</svg>
